<?xml version="1.0" encoding="utf-8"?>
<!-- Generator: Adobe Illustrator 22.1.0, SVG Export Plug-In . SVG Version: 6.00 Build 0)  -->
<svg version="1.1" id="Capa_1" xmlns="http://www.w3.org/2000/svg" xmlns:xlink="http://www.w3.org/1999/xlink" x="0px" y="0px"
	 viewBox="0 0 24 24" style="enable-background:new 0 0 24 24;" xml:space="preserve">
<style type="text/css">
	.st0{fill:#00E6B3;}
	.st1{fill:#142664;}
</style>
<g>
	<path class="st0" d="M5.5,9.6c0-0.5,0.4-0.8,0.8-0.8h3.3c0.5,0,0.8,0.4,0.8,0.8c0,0.5-0.4,0.8-0.8,0.8H6.3C5.8,10.4,5.5,10,5.5,9.6
		z"/>
	<path class="st0" d="M18.5,4.7h-13c-1.8,0-3.3,1.5-3.3,3.3v8.1c0,1.8,1.5,3.3,3.3,3.3h13c1.8,0,3.3-1.5,3.3-3.3V7.9
		C21.8,6.1,20.3,4.7,18.5,4.7z M20.1,16.1c0,0.9-0.7,1.6-1.6,1.6h-13c-0.9,0-1.6-0.7-1.6-1.6v-0.8h16.3V16.1z M20.1,13.6H3.9V7.9
		c0-0.9,0.7-1.6,1.6-1.6h13c0.9,0,1.6,0.7,1.6,1.6V13.6z"/>
</g>
<g>
	<path class="st1" d="M6.1,9c0-0.5,0.4-0.8,0.8-0.8h3.3C10.6,8.2,11,8.6,11,9s-0.4,0.8-0.8,0.8H6.9C6.4,9.8,6.1,9.5,6.1,9z"/>
	<path class="st1" d="M19.1,4.1h-13c-1.8,0-3.3,1.5-3.3,3.3v8.1c0,1.8,1.5,3.3,3.3,3.3h13c1.8,0,3.3-1.5,3.3-3.3V7.4
		C22.4,5.6,20.9,4.1,19.1,4.1z M20.7,15.5c0,0.9-0.7,1.6-1.6,1.6h-13c-0.9,0-1.6-0.7-1.6-1.6v-0.8h16.3V15.5z M20.7,13.1H4.4V7.4
		c0-0.9,0.7-1.6,1.6-1.6h13c0.9,0,1.6,0.7,1.6,1.6V13.1z"/>
</g>
</svg>
