<?xml version="1.0" encoding="utf-8"?>
<!-- Generator: Adobe Illustrator 22.1.0, SVG Export Plug-In . SVG Version: 6.00 Build 0)  -->
<svg version="1.1" xmlns="http://www.w3.org/2000/svg" xmlns:xlink="http://www.w3.org/1999/xlink" x="0px" y="0px"
	 viewBox="0 0 750 500" style="enable-background:new 0 0 750 500;" xml:space="preserve">
<style type="text/css">
	.st0{display:none;}
	.st1{display:inline;fill:#F2F2F2;}
	.st2{clip-path:url(#XMLID_31_);}
	.st3{fill:none;stroke:#FFFFFF;stroke-width:1.1533;stroke-linecap:round;stroke-linejoin:round;stroke-miterlimit:10;}
	.st4{clip-path:url(#XMLID_31_);fill:none;stroke:#FFFFFF;stroke-width:2;stroke-miterlimit:10;}
	.st5{fill:#FFFFFF;}
	.st6{fill:#00E6B3;}
	.st7{fill:none;stroke:#000000;stroke-width:2.5152;stroke-miterlimit:10;}
	.st8{fill:none;stroke:#010101;stroke-width:1.6547;stroke-linecap:round;stroke-linejoin:round;stroke-miterlimit:10;}
	.st9{fill:none;stroke:#00E6B3;stroke-width:1.6547;stroke-linecap:round;stroke-linejoin:round;stroke-miterlimit:10;}
	.st10{fill:none;stroke:#FF2E93;stroke-width:1.7707;stroke-miterlimit:10;}
	.st11{fill:#010101;}
	.st12{fill:none;stroke:#010101;stroke-width:2;stroke-linecap:round;stroke-linejoin:round;stroke-miterlimit:10;}
	.st13{fill:none;stroke:#00E6B3;stroke-width:2;stroke-linecap:round;stroke-linejoin:round;stroke-miterlimit:10;}
	.st14{fill:#FF2E93;}
	.st15{fill:none;stroke:#010101;stroke-width:3;stroke-linecap:round;stroke-linejoin:round;stroke-miterlimit:10;}
	.st16{fill:none;stroke:#010101;stroke-width:2.5624;stroke-miterlimit:10;}
	.st17{fill:none;stroke:#00E6B3;stroke-width:10;stroke-linecap:round;stroke-linejoin:round;stroke-miterlimit:10;}
	.st18{fill:none;stroke:#010101;stroke-width:8;stroke-linecap:round;stroke-linejoin:round;stroke-miterlimit:10;}
	.st19{fill:none;stroke:#010101;stroke-width:4;stroke-linecap:round;stroke-linejoin:round;stroke-miterlimit:10;}
	.st20{fill:none;stroke:#00E6B3;stroke-width:1.7707;stroke-miterlimit:10;}
	.st21{fill:none;}
</style>
<g id="BACKGROUND" class="st0">
	<rect id="XMLID_449_" class="st1" width="750" height="500"/>
</g>
<g id="OBJECTS">
	<g id="XMLID_650_">
		<defs>
			<rect id="XMLID_459_" width="750" height="500"/>
		</defs>
		<clipPath id="XMLID_31_">
			<use xlink:href="#XMLID_459_"  style="overflow:visible;"/>
		</clipPath>
		<g id="XMLID_504_" class="st2">
			<line id="XMLID_526_" class="st3" x1="608.8" y1="133.4" x2="612.9" y2="137.5"/>
			<line id="XMLID_525_" class="st3" x1="594.6" y1="119.2" x2="602.2" y2="126.8"/>
			<line id="XMLID_524_" class="st3" x1="607.5" y1="120.1" x2="636.1" y2="148.7"/>
			<line id="XMLID_523_" class="st3" x1="592.9" y1="105.5" x2="598.7" y2="111.3"/>
			<line id="XMLID_522_" class="st3" x1="628" y1="128.7" x2="653.2" y2="153.9"/>
			<line id="XMLID_521_" class="st3" x1="590" y1="90.7" x2="616.9" y2="117.5"/>
			<line id="XMLID_520_" class="st3" x1="611.1" y1="99.8" x2="655.5" y2="144.2"/>
			<line id="XMLID_519_" class="st3" x1="592.7" y1="81.4" x2="602.1" y2="90.8"/>
			<line id="XMLID_518_" class="st3" x1="647.8" y1="124.5" x2="658.5" y2="135.2"/>
			<line id="XMLID_517_" class="st3" x1="582.1" y1="58.8" x2="636.6" y2="113.3"/>
			<line id="XMLID_516_" class="st3" x1="625.8" y1="90.5" x2="679" y2="143.8"/>
			<line id="XMLID_515_" class="st3" x1="602.3" y1="67" x2="614.6" y2="79.4"/>
			<line id="XMLID_514_" class="st3" x1="636.1" y1="88.9" x2="670.5" y2="123.3"/>
			<line id="XMLID_513_" class="st3" x1="601" y1="53.8" x2="626.4" y2="79.2"/>
			<line id="XMLID_512_" class="st3" x1="664.5" y1="105.3" x2="682.4" y2="123.3"/>
			<line id="XMLID_511_" class="st3" x1="616.5" y1="57.4" x2="651.4" y2="92.3"/>
			<line id="XMLID_510_" class="st3" x1="647.1" y1="75.9" x2="671.3" y2="100.2"/>
			<line id="XMLID_509_" class="st3" x1="619.4" y1="48.3" x2="637.6" y2="66.4"/>
			<line id="XMLID_508_" class="st3" x1="668.6" y1="85.6" x2="678.1" y2="95"/>
			<line id="XMLID_507_" class="st3" x1="633.9" y1="50.8" x2="657.8" y2="74.8"/>
			<line id="XMLID_506_" class="st3" x1="663.7" y1="68.7" x2="669.5" y2="74.5"/>
			<line id="XMLID_505_" class="st3" x1="653.5" y1="58.5" x2="657.5" y2="62.5"/>
		</g>
		<g id="XMLID_564_" class="st2">
			<line id="XMLID_581_" class="st3" x1="296" y1="499.4" x2="322.9" y2="526.2"/>
			<line id="XMLID_579_" class="st3" x1="298.7" y1="490.1" x2="308.1" y2="499.5"/>
			<line id="XMLID_577_" class="st3" x1="288.1" y1="467.5" x2="342.6" y2="521.9"/>
			<line id="XMLID_576_" class="st3" x1="331.8" y1="499.2" x2="385" y2="552.4"/>
			<line id="XMLID_575_" class="st3" x1="308.3" y1="475.7" x2="320.6" y2="488.1"/>
			<line id="XMLID_574_" class="st3" x1="342.1" y1="497.6" x2="376.5" y2="532"/>
			<line id="XMLID_573_" class="st3" x1="307" y1="462.5" x2="332.4" y2="487.9"/>
			<line id="XMLID_571_" class="st3" x1="322.5" y1="466" x2="357.4" y2="500.9"/>
			<line id="XMLID_570_" class="st3" x1="353.1" y1="484.6" x2="377.3" y2="508.9"/>
			<line id="XMLID_569_" class="st3" x1="325.4" y1="457" x2="343.6" y2="475.1"/>
			<line id="XMLID_568_" class="st3" x1="374.6" y1="494.2" x2="384.1" y2="503.7"/>
			<line id="XMLID_567_" class="st3" x1="339.9" y1="459.5" x2="363.8" y2="483.4"/>
			<line id="XMLID_566_" class="st3" x1="369.7" y1="477.4" x2="375.5" y2="483.2"/>
			<line id="XMLID_565_" class="st3" x1="359.5" y1="467.2" x2="363.5" y2="471.2"/>
		</g>
		<g id="XMLID_627_" class="st2">
			<line id="XMLID_649_" class="st3" x1="330.8" y1="7.4" x2="334.9" y2="11.5"/>
			<line id="XMLID_648_" class="st3" x1="316.6" y1="-6.8" x2="324.2" y2="0.8"/>
			<line id="XMLID_647_" class="st3" x1="329.5" y1="-5.9" x2="358.1" y2="22.7"/>
			<line id="XMLID_645_" class="st3" x1="350" y1="2.7" x2="375.2" y2="27.9"/>
			<line id="XMLID_643_" class="st3" x1="333.1" y1="-26.2" x2="377.5" y2="18.2"/>
			<line id="XMLID_641_" class="st3" x1="369.8" y1="-1.5" x2="380.5" y2="9.2"/>
			<line id="XMLID_639_" class="st3" x1="347.8" y1="-35.5" x2="401" y2="17.8"/>
		</g>
		<path id="XMLID_503_" class="st4" d="M243.1,113.7L243.1,113.7c5.8,5.8,5.8,15.2,0,20.9h0c-5.8,5.8-15.2,5.8-20.9,0l0,0
			c-5.8-5.8-5.8-15.2,0-20.9v0C228,107.9,237.4,107.9,243.1,113.7z"/>
		<path id="XMLID_625_" class="st4" d="M554.5,133.7L554.5,133.7c5.8,5.8,5.8,15.2,0,20.9l0,0c-5.8,5.8-15.2,5.8-20.9,0l0,0
			c-5.8-5.8-5.8-15.2,0-20.9v0C539.3,127.9,548.7,127.9,554.5,133.7z"/>
		<path id="XMLID_626_" class="st4" d="M195,456.5L195,456.5c3.9,3.9,3.9,10.2,0,14.1l0,0c-3.9,3.9-10.2,3.9-14.1,0l0,0
			c-3.9-3.9-3.9-10.2,0-14.1l0,0C184.8,452.6,191.1,452.6,195,456.5z"/>
		<g id="XMLID_466_" class="st2">
			<g id="XMLID_497_">
				<path id="XMLID_502_" class="st5" d="M324.4,377.6c0.8-0.8,2-0.8,2.8,0c0.8,0.8,0.8,2,0,2.8c-0.8,0.8-2,0.8-2.8,0
					C323.6,379.6,323.6,378.4,324.4,377.6z"/>
				<path id="XMLID_501_" class="st5" d="M302.6,355.9c0.8-0.8,2-0.8,2.8,0c0.8,0.8,0.8,2,0,2.8c-0.8,0.8-2,0.8-2.8,0
					C301.9,357.9,301.9,356.6,302.6,355.9z"/>
				<circle id="XMLID_500_" class="st5" cx="282.3" cy="335.5" r="2"/>
				<circle id="XMLID_499_" class="st5" cx="260.5" cy="313.8" r="2"/>
				<circle id="XMLID_498_" class="st5" cx="238.8" cy="292" r="2"/>
			</g>
			<g id="XMLID_491_">
				<circle id="XMLID_496_" class="st5" cx="345.2" cy="359.6" r="2"/>
				<circle id="XMLID_495_" class="st5" cx="323.4" cy="337.8" r="2"/>
				<path id="XMLID_494_" class="st5" d="M300.3,314.7c0.8-0.8,2-0.8,2.8,0c0.8,0.8,0.8,2,0,2.8c-0.8,0.8-2,0.8-2.8,0
					C299.6,316.7,299.6,315.5,300.3,314.7z"/>
				<path id="XMLID_493_" class="st5" d="M278.6,293c0.8-0.8,2-0.8,2.8,0c0.8,0.8,0.8,2,0,2.8c-0.8,0.8-2,0.8-2.8,0
					C277.8,295,277.8,293.7,278.6,293z"/>
				<path id="XMLID_492_" class="st5" d="M256.8,271.2c0.8-0.8,2-0.8,2.8,0c0.8,0.8,0.8,2,0,2.8c-0.8,0.8-2,0.8-2.8,0
					C256.1,273.2,256.1,272,256.8,271.2z"/>
			</g>
			<g id="XMLID_485_">
				<circle id="XMLID_490_" class="st5" cx="364.6" cy="340.1" r="2"/>
				<path id="XMLID_489_" class="st5" d="M341.5,317c0.8-0.8,2-0.8,2.8,0c0.8,0.8,0.8,2,0,2.8c-0.8,0.8-2,0.8-2.8,0
					C340.7,319,340.7,317.8,341.5,317z"/>
				<path id="XMLID_488_" class="st5" d="M319.7,295.3c0.8-0.8,2-0.8,2.8,0c0.8,0.8,0.8,2,0,2.8c-0.8,0.8-2,0.8-2.8,0
					C319,297.3,319,296,319.7,295.3z"/>
				<path id="XMLID_487_" class="st5" d="M298,273.5c0.8-0.8,2-0.8,2.8,0c0.8,0.8,0.8,2,0,2.8c-0.8,0.8-2,0.8-2.8,0
					C297.2,275.5,297.2,274.3,298,273.5z"/>
				<path id="XMLID_486_" class="st5" d="M276.3,251.8c0.8-0.8,2-0.8,2.8,0c0.8,0.8,0.8,2,0,2.8c-0.8,0.8-2,0.8-2.8,0
					C275.5,253.8,275.5,252.6,276.3,251.8z"/>
			</g>
			<g id="XMLID_479_">
				<path id="XMLID_484_" class="st5" d="M382.7,319.3c0.8-0.8,2-0.8,2.8,0c0.8,0.8,0.8,2,0,2.8c-0.8,0.8-2,0.8-2.8,0
					C381.9,321.3,381.9,320.1,382.7,319.3z"/>
				<path id="XMLID_483_" class="st5" d="M360.9,297.6c0.8-0.8,2-0.8,2.8,0c0.8,0.8,0.8,2,0,2.8c-0.8,0.8-2,0.8-2.8,0
					C360.2,299.6,360.2,298.4,360.9,297.6z"/>
				<circle id="XMLID_482_" class="st5" cx="340.6" cy="277.2" r="2"/>
				<circle id="XMLID_481_" class="st5" cx="318.8" cy="255.5" r="2"/>
				<circle id="XMLID_480_" class="st5" cx="297.1" cy="233.8" r="2"/>
			</g>
			<g id="XMLID_473_">
				<circle id="XMLID_478_" class="st5" cx="403.5" cy="301.3" r="2"/>
				<circle id="XMLID_477_" class="st5" cx="381.7" cy="279.5" r="2"/>
				<path id="XMLID_476_" class="st5" d="M358.6,256.4c0.8-0.8,2-0.8,2.8,0c0.8,0.8,0.8,2,0,2.8c-0.8,0.8-2,0.8-2.8,0
					C357.8,258.4,357.8,257.2,358.6,256.4z"/>
				<path id="XMLID_475_" class="st5" d="M336.9,234.7c0.8-0.8,2-0.8,2.8,0c0.8,0.8,0.8,2,0,2.8c-0.8,0.8-2,0.8-2.8,0
					C336.1,236.7,336.1,235.4,336.9,234.7z"/>
				<path id="XMLID_474_" class="st5" d="M315.1,212.9c0.8-0.8,2-0.8,2.8,0c0.8,0.8,0.8,2,0,2.8c-0.8,0.8-2,0.8-2.8,0
					C314.4,214.9,314.4,213.7,315.1,212.9z"/>
			</g>
			<g id="XMLID_467_">
				<circle id="XMLID_472_" class="st5" cx="422.9" cy="281.9" r="2"/>
				<path id="XMLID_471_" class="st5" d="M399.8,258.7c0.8-0.8,2-0.8,2.8,0c0.8,0.8,0.8,2,0,2.8c-0.8,0.8-2,0.8-2.8,0
					C399,260.7,399,259.5,399.8,258.7z"/>
				<path id="XMLID_470_" class="st5" d="M378,237c0.8-0.8,2-0.8,2.8,0c0.8,0.8,0.8,2,0,2.8c-0.8,0.8-2,0.8-2.8,0
					C377.3,239,377.3,237.8,378,237z"/>
				<circle id="XMLID_469_" class="st5" cx="357.7" cy="216.6" r="2"/>
				<path id="XMLID_468_" class="st5" d="M334.6,193.5c0.8-0.8,2-0.8,2.8,0c0.8,0.8,0.8,2,0,2.8c-0.8,0.8-2,0.8-2.8,0
					C333.8,195.5,333.8,194.3,334.6,193.5z"/>
			</g>
		</g>
		<g id="XMLID_587_" class="st2">
			<g id="XMLID_619_">
				<path id="XMLID_623_" class="st5" d="M735.8,291.9c0.8-0.8,2-0.8,2.8,0c0.8,0.8,0.8,2,0,2.8c-0.8,0.8-2,0.8-2.8,0
					C735.1,293.9,735.1,292.6,735.8,291.9z"/>
				<path id="XMLID_622_" class="st5" d="M714.1,270.1c0.8-0.8,2-0.8,2.8,0c0.8,0.8,0.8,2,0,2.8c-0.8,0.8-2,0.8-2.8,0
					C713.3,272.1,713.3,270.9,714.1,270.1z"/>
				<path id="XMLID_621_" class="st5" d="M692.3,248.4c0.8-0.8,2-0.8,2.8,0s0.8,2,0,2.8c-0.8,0.8-2,0.8-2.8,0
					C691.6,250.4,691.6,249.2,692.3,248.4z"/>
				<circle id="XMLID_620_" class="st5" cx="672" cy="228" r="2"/>
			</g>
			<g id="XMLID_613_">
				<circle id="XMLID_616_" class="st5" cx="734.9" cy="252.1" r="2"/>
				<circle id="XMLID_615_" class="st5" cx="713.2" cy="230.3" r="2"/>
				<circle id="XMLID_614_" class="st5" cx="691.4" cy="208.6" r="2"/>
			</g>
			<g id="XMLID_607_">
				<path id="XMLID_609_" class="st5" d="M731.2,209.5c0.8-0.8,2-0.8,2.8,0c0.8,0.8,0.8,2,0,2.8c-0.8,0.8-2,0.8-2.8,0
					C730.4,211.5,730.4,210.3,731.2,209.5z"/>
				<path id="XMLID_608_" class="st5" d="M709.5,187.8c0.8-0.8,2-0.8,2.8,0c0.8,0.8,0.8,2,0,2.8c-0.8,0.8-2,0.8-2.8,0
					S708.7,188.6,709.5,187.8z"/>
			</g>
			<g id="XMLID_600_">
				<path id="XMLID_601_" class="st5" d="M728.9,168.4c0.8-0.8,2-0.8,2.8,0c0.8,0.8,0.8,2,0,2.8c-0.8,0.8-2,0.8-2.8,0
					C728.1,170.4,728.1,169.1,728.9,168.4z"/>
			</g>
			<g id="XMLID_594_">
				<circle id="XMLID_595_" class="st5" cx="749.7" cy="150.3" r="2"/>
			</g>
		</g>
		<g id="XMLID_527_" class="st2">
			<g id="XMLID_552_">
				<path id="XMLID_557_" class="st5" d="M1.3,162.6c0.8-0.8,2-0.8,2.8,0s0.8,2,0,2.8c-0.8,0.8-2,0.8-2.8,0
					C0.5,164.6,0.5,163.3,1.3,162.6z"/>
			</g>
			<g id="XMLID_546_">
				<circle id="XMLID_551_" class="st5" cx="22.1" cy="144.5" r="2"/>
				<circle id="XMLID_550_" class="st5" cx="0.4" cy="122.8" r="2"/>
			</g>
			<g id="XMLID_540_">
				<path id="XMLID_545_" class="st5" d="M40.1,123.7c0.8-0.8,2-0.8,2.8,0c0.8,0.8,0.8,2,0,2.8c-0.8,0.8-2,0.8-2.8,0
					C39.4,125.7,39.4,124.5,40.1,123.7z"/>
				<path id="XMLID_544_" class="st5" d="M18.4,102c0.8-0.8,2-0.8,2.8,0c0.8,0.8,0.8,2,0,2.8c-0.8,0.8-2,0.8-2.8,0
					C17.6,104,17.6,102.7,18.4,102z"/>
				<path id="XMLID_543_" class="st5" d="M-3.3,80.2c0.8-0.8,2-0.8,2.8,0c0.8,0.8,0.8,2,0,2.8s-2,0.8-2.8,0
					C-4.1,82.2-4.1,81-3.3,80.2z"/>
			</g>
			<g id="XMLID_534_">
				<path id="XMLID_539_" class="st5" d="M59.6,104.3c0.8-0.8,2-0.8,2.8,0c0.8,0.8,0.8,2,0,2.8c-0.8,0.8-2,0.8-2.8,0
					C58.8,106.3,58.8,105,59.6,104.3z"/>
				<path id="XMLID_538_" class="st5" d="M37.8,82.5c0.8-0.8,2-0.8,2.8,0c0.8,0.8,0.8,2,0,2.8c-0.8,0.8-2,0.8-2.8,0
					C37.1,84.5,37.1,83.3,37.8,82.5z"/>
				<path id="XMLID_537_" class="st5" d="M16.1,60.8c0.8-0.8,2-0.8,2.8,0c0.8,0.8,0.8,2,0,2.8c-0.8,0.8-2,0.8-2.8,0
					C15.3,62.8,15.3,61.6,16.1,60.8z"/>
			</g>
			<g id="XMLID_528_">
				<circle id="XMLID_533_" class="st5" cx="80.4" cy="86.2" r="2"/>
				<circle id="XMLID_532_" class="st5" cx="58.7" cy="64.5" r="2"/>
				<path id="XMLID_531_" class="st5" d="M35.5,41.4c0.8-0.8,2-0.8,2.8,0c0.8,0.8,0.8,2,0,2.8c-0.8,0.8-2,0.8-2.8,0
					C34.8,43.4,34.8,42.1,35.5,41.4z"/>
				<path id="XMLID_530_" class="st5" d="M13.8,19.6c0.8-0.8,2-0.8,2.8,0c0.8,0.8,0.8,2,0,2.8c-0.8,0.8-2,0.8-2.8,0
					C13,21.6,13,20.4,13.8,19.6z"/>
			</g>
		</g>
	</g>
	<path id="XMLID_52_" class="st6" d="M581.8,36.2c10.4,10.3,10.4,27.1,0,37.4L544,36.2C554.5,25.9,571.4,25.9,581.8,36.2z"/>
	<path id="XMLID_25_" class="st7" d="M561.3,91c-10.4-10.3-10.4-27.1,0-37.4L599.1,91C588.7,101.3,571.8,101.3,561.3,91z"/>
	<line id="XMLID_81_" class="st8" x1="-25.5" y1="495.8" x2="15.5" y2="536.9"/>
	<line id="XMLID_77_" class="st8" x1="-20.3" y1="466.7" x2="43.4" y2="530.5"/>
	<line id="XMLID_74_" class="st8" x1="-62" y1="407.9" x2="16.2" y2="486.1"/>
	<line id="XMLID_73_" class="st9" x1="0.7" y1="453.4" x2="77.1" y2="529.8"/>
	<line id="XMLID_71_" class="st8" x1="15.5" y1="451.1" x2="64.9" y2="500.4"/>
	<line id="XMLID_70_" class="st8" x1="-34.8" y1="400.7" x2="1.6" y2="437.2"/>
	<line id="XMLID_69_" class="st9" x1="56.2" y1="474.6" x2="82" y2="500.4"/>
	<line id="XMLID_68_" class="st9" x1="-12.6" y1="405.8" x2="37.5" y2="455.9"/>
	<line id="XMLID_67_" class="st8" x1="31.3" y1="432.5" x2="66.1" y2="467.3"/>
	<line id="XMLID_66_" class="st8" x1="-8.4" y1="392.8" x2="17.6" y2="418.9"/>
	<line id="XMLID_65_" class="st9" x1="62.2" y1="446.3" x2="75.8" y2="459.8"/>
	<line id="XMLID_64_" class="st9" x1="12.4" y1="396.5" x2="46.7" y2="430.8"/>
	<line id="XMLID_63_" class="st8" x1="55.2" y1="422.1" x2="63.5" y2="430.4"/>
	<line id="XMLID_62_" class="st8" x1="40.6" y1="407.5" x2="46.3" y2="413.2"/>
	<line id="XMLID_86_" class="st8" x1="721.7" y1="80.2" x2="727.6" y2="86.2"/>
	<line id="XMLID_85_" class="st8" x1="701.3" y1="59.9" x2="712.2" y2="70.8"/>
	<line id="XMLID_84_" class="st8" x1="719.8" y1="61.2" x2="760.8" y2="102.2"/>
	<line id="XMLID_61_" class="st8" x1="698.8" y1="40.2" x2="707.2" y2="48.6"/>
	<line id="XMLID_59_" class="st9" x1="749.3" y1="73.5" x2="785.4" y2="109.7"/>
	<line id="XMLID_58_" class="st9" x1="694.8" y1="19" x2="733.3" y2="57.5"/>
	<line id="XMLID_55_" class="st8" x1="725" y1="32.1" x2="788.8" y2="95.8"/>
	<line id="XMLID_54_" class="st8" x1="698.6" y1="5.7" x2="712.1" y2="19.2"/>
	<line id="XMLID_49_" class="st8" x1="683.3" y1="-26.8" x2="761.5" y2="51.4"/>
	<line id="XMLID_48_" class="st9" x1="746" y1="18.8" x2="822.4" y2="95.2"/>
	<line id="XMLID_47_" class="st9" x1="712.3" y1="-14.9" x2="730" y2="2.8"/>
	<line id="XMLID_45_" class="st8" x1="710.5" y1="-33.9" x2="747" y2="2.5"/>
	<line id="XMLID_43_" class="st9" x1="732.8" y1="-28.8" x2="782.8" y2="21.3"/>
	<path id="XMLID_22_" class="st10" d="M431.2,136l-42.4-42.4c-0.7-0.7-0.7-1.8,0-2.4l42.4-42.4c0.7-0.7,1.8-0.7,2.4,0L476,91.1
		c0.7,0.7,0.7,1.8,0,2.4L433.6,136C432.9,136.6,431.8,136.6,431.2,136z"/>
	<g id="XMLID_602_">
		<g id="XMLID_735_">
			<circle id="XMLID_746_" class="st11" cx="433.2" cy="34.7" r="1"/>
			<path id="XMLID_745_" class="st11" d="M444.9,46.4c-0.4,0.4-1,0.4-1.4,0c-0.4-0.4-0.4-1,0-1.4c0.4-0.4,1-0.4,1.4,0
				C445.3,45.4,445.3,46,444.9,46.4z"/>
			<path id="XMLID_744_" class="st11" d="M456,57.4c-0.4,0.4-1,0.4-1.4,0c-0.4-0.4-0.4-1,0-1.4c0.4-0.4,1-0.4,1.4,0
				C456.3,56.4,456.3,57,456,57.4z"/>
			<path id="XMLID_743_" class="st11" d="M467,68.4c-0.4,0.4-1,0.4-1.4,0c-0.4-0.4-0.4-1,0-1.4c0.4-0.4,1-0.4,1.4,0
				C467.3,67.4,467.3,68,467,68.4z"/>
			<circle id="XMLID_742_" class="st11" cx="477.3" cy="78.7" r="1"/>
		</g>
		<g id="XMLID_723_">
			<path id="XMLID_734_" class="st11" d="M424.1,45.2c-0.4,0.4-1,0.4-1.4,0c-0.4-0.4-0.4-1,0-1.4c0.4-0.4,1-0.4,1.4,0
				C424.5,44.2,424.5,44.9,424.1,45.2z"/>
			<circle id="XMLID_733_" class="st11" cx="434.4" cy="55.5" r="1"/>
			<circle id="XMLID_732_" class="st11" cx="445.4" cy="66.5" r="1"/>
			<circle id="XMLID_731_" class="st11" cx="456.4" cy="77.6" r="1"/>
			<circle id="XMLID_730_" class="st11" cx="467.4" cy="88.6" r="1"/>
		</g>
		<g id="XMLID_711_">
			<path id="XMLID_722_" class="st11" d="M414.3,55.1c-0.4,0.4-1,0.4-1.4,0c-0.4-0.4-0.4-1,0-1.4c0.4-0.4,1-0.4,1.4,0
				C414.7,54.1,414.7,54.7,414.3,55.1z"/>
			<circle id="XMLID_721_" class="st11" cx="424.6" cy="65.4" r="1"/>
			<circle id="XMLID_720_" class="st11" cx="435.6" cy="76.4" r="1"/>
			<circle id="XMLID_719_" class="st11" cx="446.6" cy="87.4" r="1"/>
			<path id="XMLID_718_" class="st11" d="M458.3,99.1c-0.4,0.4-1,0.4-1.4,0c-0.4-0.4-0.4-1,0-1.4c0.4-0.4,1-0.4,1.4,0
				C458.7,98.1,458.7,98.7,458.3,99.1z"/>
		</g>
		<g id="XMLID_699_">
			<path id="XMLID_710_" class="st11" d="M404.4,64.9c-0.4,0.4-1,0.4-1.4,0c-0.4-0.4-0.4-1,0-1.4c0.4-0.4,1-0.4,1.4,0
				C404.8,63.9,404.8,64.5,404.4,64.9z"/>
			<path id="XMLID_709_" class="st11" d="M415.4,75.9c-0.4,0.4-1,0.4-1.4,0c-0.4-0.4-0.4-1,0-1.4s1-0.4,1.4,0
				C415.8,74.9,415.8,75.5,415.4,75.9z"/>
			<circle id="XMLID_708_" class="st11" cx="425.7" cy="86.2" r="1"/>
			<path id="XMLID_707_" class="st11" d="M437.5,97.9c-0.4,0.4-1,0.4-1.4,0c-0.4-0.4-0.4-1,0-1.4c0.4-0.4,1-0.4,1.4,0
				C437.8,96.9,437.8,97.5,437.5,97.9z"/>
			<path id="XMLID_706_" class="st11" d="M448.5,108.9c-0.4,0.4-1,0.4-1.4,0c-0.4-0.4-0.4-1,0-1.4c0.4-0.4,1-0.4,1.4,0
				C448.8,107.9,448.8,108.5,448.5,108.9z"/>
		</g>
		<g id="XMLID_687_">
			<path id="XMLID_698_" class="st11" d="M394.6,74.7c-0.4,0.4-1,0.4-1.4,0c-0.4-0.4-0.4-1,0-1.4c0.4-0.4,1-0.4,1.4,0
				C395,73.7,395,74.4,394.6,74.7z"/>
			<circle id="XMLID_697_" class="st11" cx="404.9" cy="85" r="1"/>
			<circle id="XMLID_696_" class="st11" cx="415.9" cy="96.1" r="1"/>
			<circle id="XMLID_695_" class="st11" cx="426.9" cy="107.1" r="1"/>
			<path id="XMLID_694_" class="st11" d="M438.6,118.8c-0.4,0.4-1,0.4-1.4,0c-0.4-0.4-0.4-1,0-1.4c0.4-0.4,1-0.4,1.4,0
				C439,117.7,439,118.4,438.6,118.8z"/>
		</g>
		<g id="XMLID_675_">
			<path id="XMLID_686_" class="st11" d="M384.8,84.6c-0.4,0.4-1,0.4-1.4,0c-0.4-0.4-0.4-1,0-1.4c0.4-0.4,1-0.4,1.4,0
				C385.2,83.6,385.2,84.2,384.8,84.6z"/>
			<circle id="XMLID_685_" class="st11" cx="395.1" cy="94.9" r="1"/>
			<circle id="XMLID_684_" class="st11" cx="406.1" cy="105.9" r="1"/>
			<circle id="XMLID_683_" class="st11" cx="417.1" cy="116.9" r="1"/>
			<path id="XMLID_682_" class="st11" d="M428.8,128.6c-0.4,0.4-1,0.4-1.4,0c-0.4-0.4-0.4-1,0-1.4c0.4-0.4,1-0.4,1.4,0
				C429.2,127.6,429.2,128.2,428.8,128.6z"/>
		</g>
	</g>
	<path id="XMLID_21_" class="st10" d="M353.1,410.8h51.3c0.8,0,1.5,0.7,1.5,1.5v51.3c0,0.8-0.7,1.5-1.5,1.5h-51.3
		c-0.8,0-1.5-0.7-1.5-1.5v-51.3C351.7,411.5,352.3,410.8,353.1,410.8z"/>
	<g id="XMLID_135_">
		<g id="XMLID_166_">
			<path id="XMLID_20_" class="st11" d="M410.6,474.2c0-0.5,0.4-0.8,0.8-0.8c0.5,0,0.8,0.4,0.8,0.8c0,0.5-0.4,0.8-0.8,0.8
				C411,475,410.6,474.6,410.6,474.2z"/>
			<path id="XMLID_19_" class="st11" d="M397.3,474.2c0-0.5,0.4-0.8,0.8-0.8s0.8,0.4,0.8,0.8c0,0.5-0.4,0.8-0.8,0.8
				S397.3,474.6,397.3,474.2z"/>
			<path id="XMLID_18_" class="st11" d="M384,474.2c0-0.5,0.4-0.8,0.8-0.8c0.5,0,0.8,0.4,0.8,0.8c0,0.5-0.4,0.8-0.8,0.8
				C384.4,475,384,474.6,384,474.2z"/>
			<path id="XMLID_17_" class="st11" d="M370.7,474.2c0-0.5,0.4-0.8,0.8-0.8c0.5,0,0.8,0.4,0.8,0.8c0,0.5-0.4,0.8-0.8,0.8
				C371.1,475,370.7,474.6,370.7,474.2z"/>
			<path id="XMLID_167_" class="st11" d="M357.4,474.2c0-0.5,0.4-0.8,0.8-0.8c0.5,0,0.8,0.4,0.8,0.8c0,0.5-0.4,0.8-0.8,0.8
				C357.7,475,357.4,474.6,357.4,474.2z"/>
		</g>
		<g id="XMLID_160_">
			<path id="XMLID_165_" class="st11" d="M410.6,462.3c0-0.5,0.4-0.8,0.8-0.8c0.5,0,0.8,0.4,0.8,0.8c0,0.5-0.4,0.8-0.8,0.8
				C411,463.1,410.6,462.8,410.6,462.3z"/>
			<path id="XMLID_164_" class="st11" d="M397.3,462.3c0-0.5,0.4-0.8,0.8-0.8s0.8,0.4,0.8,0.8c0,0.5-0.4,0.8-0.8,0.8
				S397.3,462.8,397.3,462.3z"/>
			<path id="XMLID_163_" class="st11" d="M384,462.3c0-0.5,0.4-0.8,0.8-0.8c0.5,0,0.8,0.4,0.8,0.8c0,0.5-0.4,0.8-0.8,0.8
				C384.4,463.1,384,462.8,384,462.3z"/>
			<path id="XMLID_162_" class="st11" d="M370.7,462.3c0-0.5,0.4-0.8,0.8-0.8c0.5,0,0.8,0.4,0.8,0.8c0,0.5-0.4,0.8-0.8,0.8
				C371.1,463.1,370.7,462.8,370.7,462.3z"/>
			<path id="XMLID_161_" class="st11" d="M357.4,462.3c0-0.5,0.4-0.8,0.8-0.8c0.5,0,0.8,0.4,0.8,0.8c0,0.5-0.4,0.8-0.8,0.8
				C357.7,463.1,357.4,462.8,357.4,462.3z"/>
		</g>
		<g id="XMLID_154_">
			<path id="XMLID_159_" class="st11" d="M410.6,450.4c0-0.5,0.4-0.8,0.8-0.8c0.5,0,0.8,0.4,0.8,0.8s-0.4,0.8-0.8,0.8
				C411,451.2,410.6,450.9,410.6,450.4z"/>
			<circle id="XMLID_158_" class="st11" cx="398.1" cy="450.4" r="0.8"/>
			<circle id="XMLID_157_" class="st11" cx="384.8" cy="450.4" r="0.8"/>
			<path id="XMLID_156_" class="st11" d="M370.7,450.4c0-0.5,0.4-0.8,0.8-0.8c0.5,0,0.8,0.4,0.8,0.8s-0.4,0.8-0.8,0.8
				C371.1,451.2,370.7,450.9,370.7,450.4z"/>
			<path id="XMLID_155_" class="st11" d="M357.4,450.4c0-0.5,0.4-0.8,0.8-0.8c0.5,0,0.8,0.4,0.8,0.8s-0.4,0.8-0.8,0.8
				C357.7,451.2,357.4,450.9,357.4,450.4z"/>
		</g>
		<g id="XMLID_16_">
			<path id="XMLID_153_" class="st11" d="M410.6,438.5c0-0.5,0.4-0.8,0.8-0.8c0.5,0,0.8,0.4,0.8,0.8c0,0.5-0.4,0.8-0.8,0.8
				C411,439.3,410.6,439,410.6,438.5z"/>
			<circle id="XMLID_152_" class="st11" cx="398.1" cy="438.5" r="0.8"/>
			<circle id="XMLID_151_" class="st11" cx="384.8" cy="438.5" r="0.8"/>
			<path id="XMLID_150_" class="st11" d="M370.7,438.5c0-0.5,0.4-0.8,0.8-0.8c0.5,0,0.8,0.4,0.8,0.8c0,0.5-0.4,0.8-0.8,0.8
				C371.1,439.3,370.7,439,370.7,438.5z"/>
			<path id="XMLID_149_" class="st11" d="M357.4,438.5c0-0.5,0.4-0.8,0.8-0.8c0.5,0,0.8,0.4,0.8,0.8c0,0.5-0.4,0.8-0.8,0.8
				C357.7,439.3,357.4,439,357.4,438.5z"/>
		</g>
		<g id="XMLID_142_">
			<path id="XMLID_147_" class="st11" d="M410.6,426.6c0-0.5,0.4-0.8,0.8-0.8c0.5,0,0.8,0.4,0.8,0.8c0,0.5-0.4,0.8-0.8,0.8
				C411,427.5,410.6,427.1,410.6,426.6z"/>
			<circle id="XMLID_146_" class="st11" cx="398.1" cy="426.6" r="0.8"/>
			<circle id="XMLID_145_" class="st11" cx="384.8" cy="426.6" r="0.8"/>
			<path id="XMLID_144_" class="st11" d="M370.7,426.6c0-0.5,0.4-0.8,0.8-0.8c0.5,0,0.8,0.4,0.8,0.8c0,0.5-0.4,0.8-0.8,0.8
				C371.1,427.5,370.7,427.1,370.7,426.6z"/>
			<path id="XMLID_143_" class="st11" d="M357.4,426.6c0-0.5,0.4-0.8,0.8-0.8c0.5,0,0.8,0.4,0.8,0.8c0,0.5-0.4,0.8-0.8,0.8
				C357.7,427.5,357.4,427.1,357.4,426.6z"/>
		</g>
		<g id="XMLID_136_">
			<path id="XMLID_141_" class="st11" d="M410.6,414.7c0-0.5,0.4-0.8,0.8-0.8c0.5,0,0.8,0.4,0.8,0.8c0,0.5-0.4,0.8-0.8,0.8
				C411,415.6,410.6,415.2,410.6,414.7z"/>
			<path id="XMLID_140_" class="st11" d="M397.3,414.7c0-0.5,0.4-0.8,0.8-0.8s0.8,0.4,0.8,0.8c0,0.5-0.4,0.8-0.8,0.8
				S397.3,415.2,397.3,414.7z"/>
			<path id="XMLID_139_" class="st11" d="M384,414.7c0-0.5,0.4-0.8,0.8-0.8c0.5,0,0.8,0.4,0.8,0.8c0,0.5-0.4,0.8-0.8,0.8
				C384.4,415.6,384,415.2,384,414.7z"/>
			<path id="XMLID_138_" class="st11" d="M370.7,414.7c0-0.5,0.4-0.8,0.8-0.8c0.5,0,0.8,0.4,0.8,0.8c0,0.5-0.4,0.8-0.8,0.8
				C371.1,415.6,370.7,415.2,370.7,414.7z"/>
			<path id="XMLID_137_" class="st11" d="M357.4,414.7c0-0.5,0.4-0.8,0.8-0.8c0.5,0,0.8,0.4,0.8,0.8c0,0.5-0.4,0.8-0.8,0.8
				C357.7,415.6,357.4,415.2,357.4,414.7z"/>
		</g>
	</g>
	<polyline id="XMLID_367_" class="st12" points="173.9,163.2 202.3,183.2 230.7,163.2 	"/>
	<polyline id="XMLID_399_" class="st12" points="60.4,163.1 88.8,183.2 117.2,163.2 145.6,183.2 	"/>
	<line id="XMLID_50_" class="st12" x1="3.7" y1="163.1" x2="32.1" y2="183.1"/>
	<polyline id="XMLID_400_" class="st13" points="145.6,165.2 173.9,145.2 202.3,165.2 230.7,145.2 	"/>
	<polyline id="XMLID_53_" class="st13" points="3.7,145.1 32.1,165.1 60.4,145.1 88.8,165.2 117.2,145.2 	"/>
	<polyline id="XMLID_57_" class="st12" points="528.3,322.9 556.7,342.9 585.1,322.9 613.4,342.9 641.8,322.9 670.2,342.9 
		698.6,322.9 727,342.9 755.3,322.9 	"/>
	<polyline id="XMLID_56_" class="st13" points="528.3,304.9 556.7,324.9 585.1,304.9 613.4,324.9 641.8,304.9 670.2,324.9 
		698.6,304.9 727,324.9 755.3,304.9 	"/>
	<circle id="XMLID_108_" class="st14" cx="161" cy="433.7" r="28.5"/>
	<circle id="XMLID_60_" class="st15" cx="150.7" cy="423.5" r="28.5"/>
	<circle id="XMLID_38_" class="st15" cx="150.7" cy="423.5" r="13.8"/>
	<circle id="XMLID_112_" class="st14" cx="55.3" cy="98.3" r="17.2"/>
	<circle id="XMLID_111_" class="st12" cx="49.1" cy="92.1" r="17.2"/>
	<path id="XMLID_119_" class="st13" d="M711.3,441l-24.1,24.1c-0.4,0.4-1,0.4-1.4,0L661.8,441c-0.4-0.4-0.4-1,0-1.4l24.1-24.1
		c0.4-0.4,1-0.4,1.4,0l24.1,24.1C711.7,440,711.7,440.6,711.3,441z"/>
	<path id="XMLID_118_" class="st11" d="M699,442.4l-10.3,10.3c-1.2,1.2-3.1,1.2-4.2,0l-10.3-10.3c-1.2-1.2-1.2-3.1,0-4.2l10.3-10.3
		c1.2-1.2,3.1-1.2,4.2,0l10.3,10.3C700.2,439.4,700.2,441.3,699,442.4z"/>
	<polygon id="XMLID_28_" class="st11" points="491.3,388 479,400.3 466.8,388 457.3,397.6 469.5,409.8 457.3,422 466.8,431.6 
		479,419.4 491.3,431.6 500.8,422 488.6,409.8 500.8,397.6 	"/>
	<polygon id="XMLID_30_" class="st13" points="489.7,378.8 477.5,391 465.3,378.8 455.7,388.4 467.9,400.6 455.7,412.8 465.3,422.4 
		477.5,410.2 489.7,422.4 499.3,412.8 487,400.6 499.3,388.4 	"/>
	<polygon id="XMLID_33_" class="st11" points="142,44 134,52 126,44 119.7,50.3 127.7,58.3 119.7,66.3 126,72.5 134,64.5 142,72.5 
		148.3,66.3 140.3,58.3 148.3,50.3 	"/>
	<polygon id="XMLID_32_" class="st10" points="141,37.9 133,45.9 125,37.9 118.7,44.2 126.7,52.2 117.2,59.2 123.5,65.5 133,58.5 
		141,66.5 147.2,60.2 139.2,52.2 147.2,44.2 	"/>
	<polygon id="XMLID_37_" class="st14" points="217.9,471.7 258.7,435.6 254.7,493.7 	"/>
	<g id="XMLID_29_">
		<polygon id="XMLID_34_" class="st12" points="210.2,458.5 253.6,425.5 245.2,483.1 		"/>
		<path id="XMLID_35_" class="st12" d="M253.6,425.5c-0.7,0.8-21.5,34.2-21.5,34.2l13.2,23.5L253.6,425.5z"/>
		<polygon id="XMLID_36_" class="st12" points="210.2,458.5 232.1,459.6 253.6,425.5 		"/>
	</g>
	<polygon id="XMLID_405_" class="st6" points="668.5,168.4 721.3,155.1 691,204.8 	"/>
	<g id="XMLID_40_">
		<polygon id="XMLID_404_" class="st12" points="667.8,153.1 721.4,143.7 687.5,191.1 		"/>
		<path id="XMLID_403_" class="st12" d="M721.4,143.7c-1,0.4-34.8,20.4-34.8,20.4l0.9,26.9L721.4,143.7z"/>
		<polygon id="XMLID_41_" class="st12" points="667.8,153.1 686.6,164.2 721.4,143.7 		"/>
	</g>
	<g id="XMLID_125_">
		<path id="XMLID_126_" class="st14" d="M593.9,477.8c-2.5,0-4.9-0.9-6.8-2.8c-3.8-3.8-3.8-9.8,0-13.6c5.1-5.1,5.1-13.5,0-18.6
			c-5.1-5.1-13.5-5.1-18.6,0c-3.8,3.8-9.8,3.8-13.6,0c-3.8-3.8-3.8-9.8,0-13.6c12.6-12.6,33.1-12.6,45.8,0
			c12.6,12.6,12.6,33.1,0,45.8C598.8,476.8,596.4,477.8,593.9,477.8z"/>
	</g>
	<g id="XMLID_123_">
		<path id="XMLID_124_" class="st16" d="M599.7,472c-2.5,0-4.9-0.9-6.8-2.8c-3.8-3.8-3.8-9.8,0-13.6c5.1-5.1,5.1-13.5,0-18.6
			c-5.1-5.1-13.5-5.1-18.6,0c-3.8,3.8-9.8,3.8-13.6,0c-3.8-3.8-3.8-9.8,0-13.6c12.6-12.6,33.1-12.6,45.8,0
			c12.6,12.6,12.6,33.1,0,45.8C604.6,471,602.2,472,599.7,472z"/>
	</g>
	<g id="XMLID_1_">
		<g id="XMLID_127_">
			<path id="XMLID_210_" class="st14" d="M278.7,94.6c-0.1-1.1,0.6-2,1.7-2.1l0,0c1.1-0.1,2,0.6,2.1,1.7l0,0c0.1,1.1-0.6,2-1.7,2.1
				l0,0c-0.1,0-0.2,0-0.2,0l0,0C279.7,96.3,278.8,95.6,278.7,94.6z M266.5,94.6c-1-0.4-1.5-1.5-1.1-2.5l0,0c0.4-1,1.5-1.5,2.5-1.1
				l0,0c1,0.4,1.5,1.5,1.1,2.5l0,0c-0.3,0.8-1,1.2-1.8,1.2l0,0C267,94.7,266.7,94.7,266.5,94.6z M291.7,90.7
				c-0.6-0.9-0.4-2.1,0.5-2.7l0,0c0.9-0.6,2.1-0.4,2.7,0.5l0,0c0.6,0.9,0.4,2.1-0.5,2.7l0,0c-0.3,0.2-0.7,0.3-1.1,0.3l0,0
				C292.6,91.5,292,91.2,291.7,90.7z M254.6,86.4c-0.7-0.8-0.6-2,0.2-2.7l0,0c0.8-0.7,2-0.6,2.7,0.2l0,0c0.7,0.8,0.6,2-0.2,2.7l0,0
				c-0.4,0.3-0.8,0.5-1.3,0.5l0,0C255.5,87,255,86.8,254.6,86.4z M301.3,81.2c-0.9-0.5-1.3-1.7-0.8-2.6l0,0c0.5-0.9,1.7-1.3,2.6-0.8
				l0,0c0.9,0.5,1.3,1.7,0.8,2.6l0,0c-0.3,0.7-1,1-1.7,1l0,0C301.9,81.4,301.6,81.3,301.3,81.2z M247.9,73.6c-0.3-1,0.4-2.1,1.4-2.3
				l0,0c1-0.3,2.1,0.4,2.3,1.4l0,0c0.3,1-0.4,2.1-1.4,2.3l0,0c-0.2,0-0.3,0.1-0.5,0.1l0,0C248.9,75.1,248.1,74.5,247.9,73.6z
				 M303.5,66.3C303.5,66.3,303.5,66.3,303.5,66.3L303.5,66.3c0-0.1,0-0.1,0-0.1l0,0c0-1.1,0.9-1.9,1.9-1.9l0,0
				c1.1,0,1.9,0.9,1.9,1.9l0,0c0,0,0,0,0,0.1l0,0c0,0,0,0,0,0.1l0,0c0,1.1-0.9,1.9-1.9,1.9l0,0C304.4,68.3,303.5,67.4,303.5,66.3z
				 M249.3,61.5c-1-0.3-1.7-1.3-1.4-2.3l0,0c0.3-1,1.3-1.7,2.3-1.4l0,0c1,0.3,1.7,1.3,1.4,2.3l0,0c-0.2,0.9-1,1.5-1.9,1.5l0,0
				C249.6,61.6,249.4,61.5,249.3,61.5z M300.5,54c-0.5-0.9-0.1-2.1,0.8-2.6l0,0c0.9-0.5,2.1-0.1,2.6,0.8l0,0
				c0.5,0.9,0.1,2.1-0.8,2.6l0,0c-0.3,0.2-0.6,0.2-0.9,0.2l0,0C301.5,55,300.8,54.7,300.5,54z M254.7,49.1c-0.8-0.7-0.9-1.9-0.2-2.7
				l0,0c0.7-0.8,1.9-0.9,2.7-0.2l0,0c0.8,0.7,0.9,1.9,0.2,2.7l0,0c-0.4,0.4-0.9,0.6-1.5,0.6l0,0C255.6,49.6,255.1,49.4,254.7,49.1z
				 M292.1,44.6c-0.9-0.6-1.1-1.8-0.5-2.7l0,0c0.6-0.9,1.8-1.1,2.7-0.5l0,0c0.9,0.6,1.1,1.8,0.5,2.7l0,0c-0.4,0.5-1,0.8-1.6,0.8l0,0
				C292.8,45,292.4,44.8,292.1,44.6z M265.3,40.6c-0.4-1,0.1-2.1,1.1-2.5l0,0l0,0l0,0c1-0.4,2.1,0.1,2.5,1.1l0,0
				c0.4,1-0.1,2.1-1.1,2.5l0,0c-0.2,0.1-0.5,0.1-0.7,0.1l0,0C266.3,41.9,265.6,41.4,265.3,40.6z M280.3,40.2
				c-1.1-0.1-1.8-1.1-1.7-2.1l0,0c0.1-1.1,1.1-1.8,2.1-1.7l0,0l0,0l0,0c1.1,0.1,1.8,1.1,1.7,2.1l0,0c-0.1,1-0.9,1.7-1.9,1.7l0,0
				C280.4,40.2,280.4,40.2,280.3,40.2z"/>
		</g>
		<g id="XMLID_14_">
			<path id="XMLID_196_" class="st14" d="M278.4,89.5c-0.1-0.9,0.5-1.6,1.4-1.8l0,0c0.9-0.1,1.7,0.5,1.8,1.4l0,0
				c0.1,0.9-0.5,1.6-1.4,1.8l0,0c-0.1,0-0.1,0-0.2,0l0,0C279.2,90.9,278.5,90.3,278.4,89.5z M268.5,89.4c-0.8-0.3-1.2-1.2-0.9-2l0,0
				c0.3-0.8,1.2-1.2,2-0.9l0,0c0.8,0.3,1.2,1.2,0.9,2l0,0c-0.2,0.6-0.8,1-1.5,1l0,0C268.8,89.5,268.6,89.5,268.5,89.4z M289,86.2
				c-0.5-0.7-0.3-1.7,0.4-2.2l0,0c0.7-0.5,1.7-0.3,2.2,0.4l0,0c0.5,0.7,0.3,1.7-0.4,2.2l0,0c-0.3,0.2-0.6,0.3-0.9,0.3l0,0
				C289.8,86.9,289.3,86.7,289,86.2z M258.7,82.7c-0.6-0.6-0.5-1.6,0.1-2.2l0,0c0.6-0.6,1.6-0.5,2.2,0.1l0,0
				c0.6,0.6,0.5,1.6-0.1,2.2l0,0c-0.3,0.3-0.7,0.4-1,0.4l0,0C259.5,83.3,259.1,83.1,258.7,82.7z M296.9,78.5
				c-0.8-0.4-1.1-1.4-0.7-2.1l0,0c0.4-0.8,1.4-1.1,2.1-0.7l0,0c0.8,0.4,1.1,1.4,0.7,2.1l0,0c-0.3,0.5-0.8,0.8-1.4,0.8l0,0
				C297.4,78.6,297.2,78.6,296.9,78.5z M253.2,72.3c-0.2-0.8,0.3-1.7,1.1-1.9l0,0c0.8-0.2,1.7,0.3,1.9,1.1l0,0
				c0.2,0.8-0.3,1.7-1.2,1.9l0,0c-0.1,0-0.3,0-0.4,0l0,0C254.1,73.5,253.4,73,253.2,72.3z M298.7,66.3L298.7,66.3
				C298.7,66.3,298.7,66.3,298.7,66.3L298.7,66.3C298.7,66.3,298.7,66.3,298.7,66.3L298.7,66.3c0-1,0.7-1.7,1.6-1.7l0,0
				c0.9,0,1.6,0.7,1.6,1.6l0,0c0,0,0,0,0,0.1l0,0c0,0,0,0,0,0l0,0c0,0.9-0.7,1.6-1.6,1.6l0,0C299.4,67.9,298.7,67.2,298.7,66.3z
				 M254.4,62.4c-0.8-0.2-1.4-1.1-1.2-1.9l0,0c0,0,0,0,0,0l0,0c0.2-0.8,1.1-1.4,1.9-1.2l0,0c0.8,0.2,1.4,1.1,1.2,1.9l0,0
				c-0.2,0.7-0.8,1.2-1.5,1.2l0,0C254.6,62.4,254.5,62.4,254.4,62.4z M296.2,56.3c-0.4-0.8-0.1-1.7,0.7-2.1l0,0
				c0.8-0.4,1.7-0.1,2.1,0.7l0,0c0.4,0.8,0.1,1.7-0.7,2.1l0,0c-0.2,0.1-0.5,0.2-0.7,0.2l0,0C297.1,57.1,296.5,56.8,296.2,56.3z
				 M258.8,52.2c-0.7-0.6-0.7-1.6-0.1-2.2l0,0c0.6-0.7,1.6-0.7,2.2-0.1l0,0c0.7,0.6,0.7,1.6,0.1,2.2l0,0c-0.3,0.4-0.8,0.5-1.2,0.5
				l0,0C259.5,52.6,259.1,52.5,258.8,52.2z M289.4,48.6c-0.7-0.5-0.9-1.5-0.4-2.2l0,0c0.5-0.7,1.5-0.9,2.2-0.4l0,0l0,0l0,0
				c0.7,0.5,0.9,1.5,0.4,2.2l0,0c-0.3,0.4-0.8,0.7-1.3,0.7l0,0C289.9,48.8,289.6,48.8,289.4,48.6z M267.5,45.3
				c-0.3-0.8,0.1-1.7,0.9-2l0,0c0.8-0.3,1.7,0.1,2,0.9l0,0c0.3,0.8-0.1,1.7-0.9,2l0,0c-0.2,0.1-0.4,0.1-0.6,0.1l0,0
				C268.3,46.3,267.7,45.9,267.5,45.3z M279.7,44.9c-0.9-0.1-1.5-0.9-1.4-1.7l0,0c0.1-0.9,0.9-1.5,1.8-1.4l0,0
				c0.9,0.1,1.5,0.9,1.4,1.7l0,0c-0.1,0.8-0.8,1.4-1.6,1.4l0,0C279.9,45,279.8,45,279.7,44.9z"/>
		</g>
		<g id="XMLID_2_">
			<path id="XMLID_3_" class="st14" d="M278.2,85.1c-0.1-0.7,0.4-1.3,1.1-1.4l0,0c0.7-0.1,1.3,0.4,1.4,1.1l0,0
				c0.1,0.7-0.4,1.3-1.1,1.4l0,0c-0.1,0-0.1,0-0.2,0l0,0C278.8,86.2,278.3,85.7,278.2,85.1z M270.1,85L270.1,85L270.1,85
				c-0.7-0.3-1-1-0.7-1.6l0,0c0.3-0.7,1-1,1.6-0.7l0,0c0.7,0.3,1,1,0.7,1.6l0,0c-0.2,0.5-0.7,0.8-1.2,0.8l0,0
				C270.4,85.1,270.3,85.1,270.1,85z M286.8,82.5c-0.4-0.6-0.3-1.4,0.3-1.8l0,0c0.6-0.4,1.4-0.3,1.8,0.3l0,0
				c0.4,0.6,0.3,1.4-0.3,1.8l0,0c-0.2,0.2-0.5,0.2-0.7,0.2l0,0C287.4,83,287,82.8,286.8,82.5z M262.2,79.6c-0.5-0.5-0.4-1.3,0.1-1.8
				l0,0c0.5-0.5,1.3-0.4,1.8,0.1l0,0c0.5,0.5,0.4,1.3-0.1,1.8l0,0c-0.2,0.2-0.5,0.3-0.8,0.3l0,0C262.8,80,262.5,79.9,262.2,79.6z
				 M293.2,76.2c-0.6-0.3-0.9-1.1-0.5-1.7l0,0c0.3-0.6,1.1-0.9,1.7-0.5l0,0c0.6,0.3,0.9,1.1,0.5,1.7l0,0c-0.2,0.4-0.7,0.7-1.1,0.7
				l0,0C293.6,76.3,293.4,76.3,293.2,76.2z M257.8,71.2c-0.2-0.7,0.2-1.4,0.9-1.5l0,0c0.7-0.2,1.4,0.3,1.5,0.9l0,0
				c0.2,0.7-0.3,1.4-0.9,1.5l0,0c-0.1,0-0.2,0-0.3,0l0,0C258.4,72.1,257.9,71.7,257.8,71.2z M294.6,66.3
				C294.6,66.3,294.6,66.3,294.6,66.3L294.6,66.3C294.6,66.3,294.6,66.3,294.6,66.3L294.6,66.3c0-0.8,0.6-1.3,1.3-1.3l0,0
				c0.7,0,1.3,0.6,1.3,1.3l0,0l0,0l0,0c0,0,0,0,0,0l0,0c0,0,0,0,0,0l0,0c0,0.7-0.6,1.3-1.3,1.3l0,0C295.2,67.6,294.6,67,294.6,66.3z
				 M258.7,63.1c-0.7-0.2-1.1-0.9-0.9-1.5l0,0c0.2-0.7,0.9-1.1,1.5-0.9l0,0c0.7,0.2,1.1,0.9,0.9,1.5l0,0c-0.1,0.6-0.7,1-1.2,1l0,0
				C258.9,63.2,258.8,63.2,258.7,63.1z M292.6,58.2c-0.3-0.6-0.1-1.4,0.5-1.7l0,0c0.6-0.3,1.4-0.1,1.7,0.5l0,0
				c0.3,0.6,0.1,1.4-0.5,1.7l0,0c-0.2,0.1-0.4,0.1-0.6,0.1l0,0C293.3,58.8,292.8,58.6,292.6,58.2z M262.3,54.9
				c-0.5-0.5-0.6-1.3-0.1-1.8l0,0l0,0l0,0c0.5-0.5,1.3-0.6,1.8-0.1l0,0c0.5,0.5,0.6,1.3,0.1,1.8l0,0c-0.3,0.3-0.6,0.4-1,0.4l0,0
				C262.8,55.2,262.5,55.1,262.3,54.9z M287.1,51.9L287.1,51.9c-0.6-0.4-0.7-1.2-0.3-1.8l0,0c0.4-0.6,1.2-0.7,1.8-0.3l0,0
				c0.6,0.4,0.7,1.2,0.3,1.8l0,0c-0.3,0.4-0.6,0.6-1.1,0.6l0,0C287.5,52.2,287.3,52.1,287.1,51.9z M269.3,49.3
				c-0.3-0.7,0.1-1.4,0.7-1.7l0,0c0.7-0.3,1.4,0.1,1.6,0.7l0,0c0.3,0.7-0.1,1.4-0.7,1.6l0,0c-0.1,0.1-0.3,0.1-0.5,0.1l0,0
				C270,50.1,269.5,49.8,269.3,49.3z M279.2,49c-0.7-0.1-1.2-0.7-1.1-1.4l0,0c0.1-0.7,0.7-1.2,1.4-1.1l0,0c0.7,0.1,1.2,0.7,1.1,1.4
				l0,0c-0.1,0.6-0.6,1.1-1.3,1.1l0,0C279.3,49,279.3,49,279.2,49z"/>
		</g>
	</g>
	<g id="XMLID_224_">
		<path id="XMLID_276_" class="st11" d="M100.8,377.7c-1-0.4-1.4-1.6-1-2.5l0,0c0.4-1,1.6-1.4,2.5-1l0,0c1,0.4,1.4,1.6,1,2.5l0,0
			c0,0.1-0.1,0.1-0.1,0.2l0,0C102.8,377.8,101.7,378.1,100.8,377.7z"/>
		<path id="XMLID_275_" class="st11" d="M94.7,388.3c-0.8,0.7-2,0.5-2.7-0.3l0,0c-0.7-0.8-0.5-2,0.3-2.7l0,0c0.8-0.7,2-0.5,2.7,0.3
			l0,0c0.5,0.6,0.6,1.5,0.2,2.2l0,0C95,387.9,94.9,388.1,94.7,388.3z"/>
		<path id="XMLID_274_" class="st11" d="M103.9,364.5c-1.1,0.1-2-0.7-2.1-1.8l0,0c-0.1-1.1,0.7-2,1.8-2.1l0,0c1.1-0.1,2,0.7,2.1,1.8
			l0,0c0,0.4-0.1,0.8-0.3,1.1l0,0C105.1,364.1,104.6,364.5,103.9,364.5z"/>
		<path id="XMLID_273_" class="st11" d="M81.6,394.4c-1,0.2-2.1-0.5-2.3-1.5l0,0c-0.2-1,0.5-2.1,1.5-2.3l0,0c1-0.2,2.1,0.5,2.3,1.5
			l0,0c0.1,0.5,0,1-0.2,1.3l0,0C82.7,394,82.2,394.3,81.6,394.4z"/>
		<path id="XMLID_272_" class="st11" d="M100.6,351.4c-0.9,0.6-2.1,0.3-2.7-0.6l0,0c-0.6-0.9-0.3-2.1,0.6-2.7l0,0
			c0.9-0.6,2.1-0.3,2.7,0.6l0,0c0.4,0.6,0.4,1.4,0,2l0,0C101,351,100.8,351.3,100.6,351.4z"/>
		<path id="XMLID_271_" class="st11" d="M67.2,393.8c-1-0.3-1.6-1.4-1.3-2.4l0,0c0.3-1,1.4-1.6,2.4-1.3l0,0c1,0.3,1.6,1.4,1.3,2.4
			l0,0c0,0.2-0.1,0.3-0.2,0.4l0,0C69,393.7,68.1,394.1,67.2,393.8z"/>
		<path id="XMLID_270_" class="st11" d="M88.8,342.1C88.8,342.1,88.8,342.1,88.8,342.1L88.8,342.1C88.8,342.1,88.8,342,88.8,342.1
			L88.8,342.1c-1-0.6-1.3-1.8-0.8-2.7l0,0c0.5-0.9,1.7-1.2,2.6-0.7l0,0c0,0,0,0,0.1,0l0,0c0,0,0,0,0.1,0l0,0
			c0.9,0.5,1.2,1.7,0.7,2.6l0,0C90.9,342.3,89.7,342.6,88.8,342.1z"/>
		<path id="XMLID_269_" class="st11" d="M57.4,386.6c-0.7,0.8-2,0.8-2.7,0.1l0,0c-0.8-0.7-0.8-2-0.1-2.7l0,0c0.7-0.8,2-0.8,2.7-0.1
			l0,0c0.7,0.6,0.8,1.6,0.3,2.4l0,0C57.6,386.3,57.5,386.4,57.4,386.6z"/>
		<path id="XMLID_268_" class="st11" d="M76.6,338.6c-1.1,0-1.9-0.9-1.8-2l0,0c0-1.1,0.9-1.9,2-1.8l0,0c1.1,0,1.9,0.9,1.9,2l0,0
			c0,0.3-0.1,0.6-0.3,0.9l0,0C78,338.2,77.4,338.6,76.6,338.6z"/>
		<path id="XMLID_267_" class="st11" d="M49.4,375.6c-1,0.3-2.1-0.2-2.4-1.2l0,0c-0.3-1,0.2-2.1,1.2-2.4l0,0c1-0.3,2.1,0.2,2.4,1.2
			l0,0c0.2,0.5,0.1,1.1-0.2,1.6l0,0C50.3,375.2,49.9,375.5,49.4,375.6z"/>
		<path id="XMLID_266_" class="st11" d="M64.3,341.1c-1,0.5-2.1,0.1-2.6-0.9l0,0c-0.5-1,0-2.1,0.9-2.6l0,0c1-0.5,2.1-0.1,2.6,0.9
			l0,0c0.3,0.6,0.2,1.3-0.1,1.8l0,0C65,340.6,64.7,340.9,64.3,341.1z"/>
		<path id="XMLID_265_" class="st11" d="M47.4,362.2c-1.1-0.2-1.8-1.2-1.6-2.2l0,0l0,0l0,0c0.2-1.1,1.2-1.8,2.2-1.6l0,0
			c1.1,0.2,1.8,1.2,1.6,2.2l0,0c0,0.2-0.1,0.5-0.2,0.7l0,0C49,362,48.2,362.4,47.4,362.2z"/>
		<path id="XMLID_264_" class="st11" d="M54.6,349.1c-0.6,0.8-1.8,1-2.7,0.4l0,0c-0.8-0.6-1-1.8-0.4-2.7l0,0l0,0l0,0
			c0.6-0.9,1.8-1,2.7-0.4l0,0c0.8,0.6,1,1.7,0.5,2.5l0,0C54.6,348.9,54.6,349,54.6,349.1z"/>
		<path id="XMLID_261_" class="st11" d="M96.2,375.4c-0.8-0.3-1.2-1.3-0.8-2.1l0,0c0.3-0.8,1.3-1.2,2.1-0.8l0,0
			c0.8,0.3,1.2,1.3,0.8,2.1l0,0c0,0.1-0.1,0.1-0.1,0.2l0,0C97.8,375.4,97,375.7,96.2,375.4z"/>
		<path id="XMLID_260_" class="st11" d="M91.2,384c-0.7,0.6-1.7,0.4-2.2-0.2l0,0c-0.6-0.7-0.5-1.7,0.2-2.2l0,0
			c0.7-0.6,1.7-0.4,2.2,0.2l0,0c0.4,0.5,0.5,1.2,0.1,1.8l0,0C91.5,383.7,91.4,383.9,91.2,384z"/>
		<path id="XMLID_259_" class="st11" d="M98.8,364.6c-0.9,0.1-1.6-0.6-1.7-1.4l0,0c-0.1-0.9,0.6-1.6,1.4-1.7l0,0
			c0.9-0.1,1.6,0.6,1.7,1.4l0,0c0,0.3-0.1,0.6-0.2,0.9l0,0C99.8,364.3,99.3,364.6,98.8,364.6z"/>
		<path id="XMLID_258_" class="st11" d="M80.5,389c-0.9,0.2-1.7-0.4-1.9-1.2l0,0c-0.2-0.9,0.4-1.7,1.2-1.9l0,0
			c0.9-0.2,1.7,0.4,1.9,1.2l0,0c0.1,0.4,0,0.8-0.2,1.1l0,0C81.4,388.7,81,389,80.5,389z"/>
		<path id="XMLID_257_" class="st11" d="M96,353.9c-0.7,0.5-1.7,0.2-2.2-0.5l0,0c-0.5-0.7-0.2-1.7,0.5-2.2l0,0
			c0.7-0.5,1.7-0.2,2.2,0.5l0,0c0.3,0.5,0.3,1.1,0,1.6l0,0C96.4,353.5,96.2,353.7,96,353.9z"/>
		<path id="XMLID_256_" class="st11" d="M68.7,388.6c-0.8-0.2-1.3-1.1-1.1-2l0,0c0.2-0.8,1.1-1.3,2-1.1l0,0c0.8,0.2,1.3,1.1,1.1,2
			l0,0c0,0.1-0.1,0.2-0.2,0.4l0,0C70.2,388.5,69.5,388.8,68.7,388.6z"/>
		<path id="XMLID_255_" class="st11" d="M86.4,346.2L86.4,346.2C86.4,346.2,86.4,346.2,86.4,346.2L86.4,346.2
			C86.4,346.2,86.4,346.2,86.4,346.2L86.4,346.2c-0.8-0.5-1.1-1.4-0.7-2.2l0,0c0.4-0.8,1.4-1,2.2-0.6l0,0c0,0,0,0,0,0l0,0
			c0,0,0,0,0,0l0,0c0.8,0.4,1,1.4,0.6,2.2l0,0C88.1,346.4,87.2,346.7,86.4,346.2z"/>
		<path id="XMLID_254_" class="st11" d="M60.7,382.6c-0.6,0.6-1.6,0.7-2.2,0l0,0c0,0,0,0,0,0l0,0c-0.6-0.6-0.6-1.6,0-2.2l0,0
			c0.6-0.6,1.6-0.6,2.2,0l0,0c0.5,0.5,0.6,1.3,0.3,1.9l0,0C60.9,382.4,60.8,382.5,60.7,382.6z"/>
		<path id="XMLID_253_" class="st11" d="M76.5,343.3c-0.9,0-1.5-0.8-1.5-1.6l0,0c0-0.9,0.8-1.5,1.6-1.5l0,0c0.9,0,1.6,0.8,1.5,1.6
			l0,0c0,0.3-0.1,0.5-0.2,0.7l0,0C77.6,343,77.1,343.4,76.5,343.3z"/>
		<path id="XMLID_252_" class="st11" d="M54.2,373.7c-0.8,0.3-1.7-0.2-2-1l0,0c-0.3-0.8,0.2-1.7,1-2l0,0c0.8-0.3,1.7,0.2,2,1l0,0
			c0.1,0.4,0.1,0.9-0.1,1.3l0,0C54.9,373.3,54.6,373.5,54.2,373.7z"/>
		<path id="XMLID_251_" class="st11" d="M66.4,345.4c-0.8,0.4-1.7,0-2.1-0.8l0,0c-0.4-0.8,0-1.7,0.7-2.1l0,0l0,0l0,0
			c0.8-0.4,1.7,0,2.1,0.7l0,0c0.2,0.5,0.2,1-0.1,1.5l0,0C66.9,345,66.7,345.3,66.4,345.4z"/>
		<path id="XMLID_250_" class="st11" d="M52.5,362.7c-0.9-0.1-1.4-0.9-1.3-1.8l0,0c0.1-0.9,0.9-1.4,1.8-1.3l0,0
			c0.9,0.1,1.4,0.9,1.3,1.8l0,0c0,0.2-0.1,0.4-0.2,0.5l0,0C53.8,362.5,53.2,362.8,52.5,362.7z"/>
		<path id="XMLID_249_" class="st11" d="M58.4,351.9c-0.5,0.7-1.5,0.8-2.2,0.3l0,0c-0.7-0.5-0.8-1.5-0.3-2.2l0,0
			c0.5-0.7,1.5-0.8,2.2-0.3l0,0c0.6,0.5,0.8,1.4,0.4,2.1l0,0C58.5,351.8,58.4,351.9,58.4,351.9z"/>
		<path id="XMLID_246_" class="st11" d="M92.3,373.4c-0.6-0.3-0.9-1-0.7-1.7l0,0c0.3-0.6,1-1,1.7-0.7l0,0c0.6,0.3,0.9,1,0.7,1.7l0,0
			c0,0,0,0.1-0.1,0.1l0,0C93.6,373.4,92.9,373.6,92.3,373.4z"/>
		<path id="XMLID_245_" class="st11" d="M88.3,380.4L88.3,380.4L88.3,380.4c-0.5,0.4-1.4,0.4-1.8-0.2l0,0c-0.4-0.5-0.4-1.3,0.2-1.8
			l0,0c0.5-0.4,1.4-0.4,1.8,0.2l0,0c0.3,0.4,0.4,1,0.1,1.4l0,0C88.5,380.1,88.4,380.3,88.3,380.4z"/>
		<path id="XMLID_244_" class="st11" d="M94.4,364.7c-0.7,0.1-1.3-0.5-1.4-1.2l0,0c-0.1-0.7,0.5-1.3,1.2-1.4l0,0
			c0.7-0.1,1.3,0.5,1.4,1.2l0,0c0,0.3,0,0.5-0.2,0.7l0,0C95.2,364.4,94.8,364.6,94.4,364.7z"/>
		<path id="XMLID_243_" class="st11" d="M79.6,384.5c-0.7,0.1-1.4-0.3-1.5-1l0,0c-0.1-0.7,0.3-1.4,1-1.5l0,0c0.7-0.1,1.4,0.3,1.5,1
			l0,0c0.1,0.3,0,0.6-0.1,0.9l0,0C80.3,384.1,80,384.4,79.6,384.5z"/>
		<path id="XMLID_242_" class="st11" d="M92.1,356c-0.6,0.4-1.4,0.2-1.8-0.4l0,0c-0.4-0.6-0.2-1.4,0.4-1.8l0,0
			c0.6-0.4,1.4-0.2,1.8,0.4l0,0c0.3,0.4,0.3,0.9,0,1.3l0,0C92.5,355.7,92.3,355.8,92.1,356z"/>
		<path id="XMLID_241_" class="st11" d="M70,384.1c-0.7-0.2-1.1-0.9-0.9-1.6l0,0c0.2-0.7,0.9-1.1,1.6-0.9l0,0
			c0.7,0.2,1.1,0.9,0.9,1.6l0,0c0,0.1-0.1,0.2-0.1,0.3l0,0C71.2,384,70.6,384.2,70,384.1z"/>
		<path id="XMLID_240_" class="st11" d="M84.4,349.8C84.4,349.8,84.4,349.8,84.4,349.8L84.4,349.8C84.3,349.7,84.3,349.7,84.4,349.8
			L84.4,349.8c-0.7-0.4-0.9-1.2-0.5-1.8l0,0c0.3-0.6,1.1-0.8,1.7-0.5l0,0l0,0l0,0c0,0,0,0,0,0l0,0c0,0,0,0,0,0l0,0
			c0.6,0.4,0.8,1.1,0.5,1.7l0,0C85.8,349.9,85,350.1,84.4,349.8z"/>
		<path id="XMLID_239_" class="st11" d="M63.6,379.2c-0.5,0.5-1.3,0.5-1.8,0l0,0c-0.5-0.5-0.5-1.3,0-1.8l0,0c0.5-0.5,1.3-0.5,1.8,0
			l0,0c0.4,0.4,0.5,1.1,0.2,1.6l0,0C63.7,379.1,63.6,379.2,63.6,379.2z"/>
		<path id="XMLID_233_" class="st11" d="M76.3,347.4c-0.7,0-1.3-0.6-1.2-1.3l0,0c0-0.7,0.6-1.3,1.3-1.2l0,0c0.7,0,1.3,0.6,1.2,1.3
			l0,0c0,0.2-0.1,0.4-0.2,0.6l0,0C77.2,347.2,76.8,347.4,76.3,347.4z"/>
		<path id="XMLID_231_" class="st11" d="M58.3,372c-0.7,0.2-1.4-0.1-1.6-0.8l0,0l0,0l0,0c-0.2-0.7,0.1-1.4,0.8-1.6l0,0
			c0.7-0.2,1.4,0.1,1.6,0.8l0,0c0.1,0.4,0.1,0.7-0.1,1l0,0C58.8,371.7,58.6,371.9,58.3,372z"/>
		<path id="XMLID_230_" class="st11" d="M68.1,349.1L68.1,349.1c-0.6,0.3-1.4,0-1.7-0.6l0,0c-0.3-0.6,0-1.4,0.6-1.7l0,0
			c0.6-0.3,1.4,0,1.7,0.6l0,0c0.2,0.4,0.2,0.8,0,1.2l0,0C68.6,348.8,68.4,349,68.1,349.1z"/>
		<path id="XMLID_229_" class="st11" d="M56.9,363.1c-0.7-0.1-1.2-0.8-1.1-1.5l0,0c0.1-0.7,0.8-1.2,1.5-1.1l0,0
			c0.7,0.1,1.2,0.8,1.1,1.5l0,0c0,0.2-0.1,0.3-0.2,0.4l0,0C58,362.9,57.5,363.2,56.9,363.1z"/>
		<path id="XMLID_228_" class="st11" d="M61.7,354.4c-0.4,0.6-1.2,0.7-1.8,0.3l0,0c-0.6-0.4-0.7-1.2-0.3-1.8l0,0
			c0.4-0.6,1.2-0.7,1.8-0.3l0,0c0.5,0.4,0.7,1.1,0.3,1.7l0,0C61.7,354.3,61.7,354.3,61.7,354.4z"/>
	</g>
	<circle id="XMLID_364_" class="st17" cx="591.9" cy="131" r="13"/>
	<circle id="XMLID_401_" class="st18" cx="184.2" cy="100" r="13"/>
	<circle id="XMLID_402_" class="st19" cx="672.3" cy="122" r="8.2"/>
	<path id="XMLID_450_" class="st6" d="M362.4,38.7c5.4,5.4,5.4,14.1,0,19.5l-19.7-19.5C348.2,33.3,357,33.3,362.4,38.7z"/>
	<path id="XMLID_452_" class="st20" d="M326.8,47.8c-5.4-5.4-5.4-14.1,0-19.5l19.7,19.5C341.1,53.2,332.2,53.2,326.8,47.8z"/>
	<rect id="XMLID_428_" class="st21" width="750" height="500"/>
</g>
</svg>
