<?xml version="1.0" encoding="utf-8"?>
<!-- Generator: Adobe Illustrator 22.1.0, SVG Export Plug-In . SVG Version: 6.00 Build 0)  -->
<svg version="1.1" id="Capa_1" xmlns="http://www.w3.org/2000/svg" xmlns:xlink="http://www.w3.org/1999/xlink" x="0px" y="0px"
	 viewBox="0 0 24 24" style="enable-background:new 0 0 24 24;" xml:space="preserve">
<style type="text/css">
	.st0{fill:#00E6B3;}
	.st1{fill:#142664;}
</style>
<path class="st0" d="M17,10.8V8.3c0-2.7-2.2-5-5-5s-5,2.2-5,5v2.5c-1.4,0-2.5,1.1-2.5,2.5v5c0,1.4,1.1,2.5,2.5,2.5H17
	c1.4,0,2.5-1.1,2.5-2.5v-5C19.4,11.9,18.3,10.8,17,10.8z M8.7,8.3C8.7,6.5,10.2,5,12,5c1.8,0,3.3,1.5,3.3,3.3v2.5H8.7V8.3z
	 M17.8,18.2c0,0.5-0.4,0.8-0.8,0.8H7c-0.5,0-0.8-0.4-0.8-0.8v-5c0-0.5,0.4-0.8,0.8-0.8H17c0.5,0,0.8,0.4,0.8,0.8V18.2z"/>
<path class="st1" d="M17.8,10V7.6c0-2.7-2.2-5-5-5s-5,2.2-5,5V10c-1.4,0-2.5,1.1-2.5,2.5v5c0,1.4,1.1,2.5,2.5,2.5h9.9
	c1.4,0,2.5-1.1,2.5-2.5v-5C20.2,11.2,19.1,10,17.8,10z M9.5,7.6c0-1.8,1.5-3.3,3.3-3.3c1.8,0,3.3,1.5,3.3,3.3V10H9.5V7.6z
	 M18.6,17.5c0,0.5-0.4,0.8-0.8,0.8H7.8c-0.5,0-0.8-0.4-0.8-0.8v-5c0-0.5,0.4-0.8,0.8-0.8h9.9c0.5,0,0.8,0.4,0.8,0.8V17.5z"/>
</svg>
