<?xml version="1.0" encoding="utf-8"?>
<!-- Generator: Adobe Illustrator 22.1.0, SVG Export Plug-In . SVG Version: 6.00 Build 0)  -->
<svg version="1.1" id="Capa_1" xmlns="http://www.w3.org/2000/svg" xmlns:xlink="http://www.w3.org/1999/xlink" x="0px" y="0px"
	 viewBox="0 0 180 65.6" style="enable-background:new 0 0 180 65.6;" xml:space="preserve">
<style type="text/css">
	.st0{display:none;}
	.st1{display:inline;}
	.st2{fill:#EDEFEF;}
	.st3{clip-path:url(#SVGID_2_);fill:#EDEFEF;}
	.st4{display:inline;fill:#8EC9C7;}
	.st5{display:inline;fill:#E9FEF5;}
	.st6{fill:url(#SVGID_4_);}
	.st7{fill:url(#SVGID_5_);}
	.st8{fill:url(#SVGID_6_);}
	.st9{fill:url(#SVGID_7_);}
	.st10{fill:url(#SVGID_8_);}
	.st11{fill:url(#SVGID_9_);}
	.st12{fill:url(#SVGID_10_);}
	.st13{fill:url(#SVGID_11_);}
	.st14{fill:url(#SVGID_12_);}
	.st15{fill:url(#SVGID_13_);}
	.st16{fill:url(#SVGID_14_);}
	.st17{fill:url(#SVGID_15_);}
	.st18{fill:url(#SVGID_16_);}
	.st19{fill:url(#SVGID_17_);}
	.st20{fill:#142664;}
</style>
<g id="BACKGROUND" class="st0">
	<g class="st1">
		<g>
			<g>
				<rect id="SVGID_3_" y="0" class="st2" width="500" height="500"/>
			</g>
			<g>
				<defs>
					<rect id="SVGID_1_" y="0" width="500" height="500"/>
				</defs>
				<clipPath id="SVGID_2_">
					<use xlink:href="#SVGID_1_"  style="overflow:visible;"/>
				</clipPath>
				<rect x="-42" y="-40" class="st3" width="586" height="585"/>
			</g>
		</g>
	</g>
	<path class="st4" d="M65.3,461.4L65.3,461.4L65.3,461.4z"/>
	<path class="st5" d="M65,462.4c0.1-0.3,0.2-0.7,0.4-1C65.2,461.7,65.1,462.1,65,462.4z"/>
	<path class="st5" d="M65.3,461.4c0-0.1,0.1-0.2,0.1-0.4C65.4,461.1,65.4,461.3,65.3,461.4z"/>
</g>
<g>
	<g>
		
			<linearGradient id="SVGID_4_" gradientUnits="userSpaceOnUse" x1="10.2435" y1="119.237" x2="10.2435" y2="85.0211" gradientTransform="matrix(1 0 0 -1 0 131.8898)">
			<stop  offset="7.435900e-02" style="stop-color:#E710E7"/>
			<stop  offset="1" style="stop-color:#09B1F2"/>
		</linearGradient>
		<path class="st6" d="M10.1,18.7c-1.3,0-2.2,1.1-2.2,2.4v8.1c0,1.3,1,2.3,2.3,2.3l0,0c1.3,0,2.3-1,2.3-2.3V21
			C12.5,19.7,11.5,18.7,10.1,18.7z"/>
		
			<linearGradient id="SVGID_5_" gradientUnits="userSpaceOnUse" x1="10.195" y1="119.2369" x2="10.195" y2="85.0211" gradientTransform="matrix(1 0 0 -1 0 131.8898)">
			<stop  offset="7.435900e-02" style="stop-color:#E710E7"/>
			<stop  offset="1" style="stop-color:#09B1F2"/>
		</linearGradient>
		<path class="st7" d="M7.9,44.5c0,1.3,1.1,2.3,2.4,2.3c1.3,0,2.2-1.2,2.2-2.4v-8.1c0-1.3-1-2.3-2.3-2.3l0,0c-1.3,0-2.3,1-2.3,2.3
			L7.9,44.5L7.9,44.5z"/>
		
			<linearGradient id="SVGID_6_" gradientUnits="userSpaceOnUse" x1="45.9314" y1="119.237" x2="45.9314" y2="85.0212" gradientTransform="matrix(1 0 0 -1 0 131.8898)">
			<stop  offset="7.435900e-02" style="stop-color:#E710E7"/>
			<stop  offset="1" style="stop-color:#09B1F2"/>
		</linearGradient>
		<path class="st8" d="M43.6,40.8c0,1.3,1.1,2.3,2.4,2.3c1.3,0,2.2-1.2,2.2-2.4v-4.4c0-1.3-1-2.3-2.3-2.3l0,0c-1.3,0-2.3,1-2.3,2.3
			L43.6,40.8L43.6,40.8z"/>
		
			<linearGradient id="SVGID_7_" gradientUnits="userSpaceOnUse" x1="45.98" y1="119.2371" x2="45.98" y2="85.0212" gradientTransform="matrix(1 0 0 -1 0 131.8898)">
			<stop  offset="7.435900e-02" style="stop-color:#E710E7"/>
			<stop  offset="1" style="stop-color:#09B1F2"/>
		</linearGradient>
		<path class="st9" d="M45.9,22.4c-1.3,0-2.2,1.2-2.2,2.4v4.4c0,1.3,1,2.3,2.3,2.3l0,0c1.3,0,2.3-1,2.3-2.3v-4.5
			C48.3,23.4,47.2,22.4,45.9,22.4z"/>
		
			<linearGradient id="SVGID_8_" gradientUnits="userSpaceOnUse" x1="52.7534" y1="119.237" x2="52.7534" y2="85.0212" gradientTransform="matrix(1 0 0 -1 0 131.8898)">
			<stop  offset="7.435900e-02" style="stop-color:#E710E7"/>
			<stop  offset="1" style="stop-color:#09B1F2"/>
		</linearGradient>
		<path class="st10" d="M50.4,36.3v1.4c0,1.3,1,2.4,2.2,2.4c1.3,0,2.4-1,2.4-2.3v-1.5c0-1.3-1-2.3-2.3-2.3l0,0
			C51.5,34,50.4,35,50.4,36.3z"/>
		
			<linearGradient id="SVGID_9_" gradientUnits="userSpaceOnUse" x1="52.7777" y1="119.237" x2="52.7777" y2="85.0211" gradientTransform="matrix(1 0 0 -1 0 131.8898)">
			<stop  offset="7.435900e-02" style="stop-color:#E710E7"/>
			<stop  offset="1" style="stop-color:#09B1F2"/>
		</linearGradient>
		<path class="st11" d="M55.1,27.7c0-1.3-1.1-2.3-2.4-2.3c-1.3,0-2.2,1.2-2.2,2.4v1.4c0,1.3,1,2.3,2.3,2.3l0,0c1.3,0,2.3-1,2.3-2.3
			L55.1,27.7L55.1,27.7z"/>
		
			<linearGradient id="SVGID_10_" gradientUnits="userSpaceOnUse" x1="38.8424" y1="119.2369" x2="38.8424" y2="85.0211" gradientTransform="matrix(1 0 0 -1 0 131.8898)">
			<stop  offset="7.435900e-02" style="stop-color:#E710E7"/>
			<stop  offset="1" style="stop-color:#09B1F2"/>
		</linearGradient>
		<path class="st12" d="M36.5,44.5c0,1.3,1,2.3,2.3,2.3l0,0c1.3,0,2.3-1,2.3-2.3v-8.2c0-1.3-1-2.3-2.3-2.3l0,0c-1.3,0-2.3,1-2.3,2.3
			V44.5z"/>
		
			<linearGradient id="SVGID_11_" gradientUnits="userSpaceOnUse" x1="38.7938" y1="119.237" x2="38.7938" y2="85.0211" gradientTransform="matrix(1 0 0 -1 0 131.8898)">
			<stop  offset="7.435900e-02" style="stop-color:#E710E7"/>
			<stop  offset="1" style="stop-color:#09B1F2"/>
		</linearGradient>
		<path class="st13" d="M38.8,18.7L38.8,18.7c-1.3,0-2.3,1-2.3,2.3v8.2c0,1.3,1,2.3,2.3,2.3l0,0c1.3,0,2.3-1,2.3-2.3V21
			C41.1,19.7,40.1,18.7,38.8,18.7z"/>
		
			<linearGradient id="SVGID_12_" gradientUnits="userSpaceOnUse" x1="17.3325" y1="119.237" x2="17.3325" y2="85.0213" gradientTransform="matrix(1 0 0 -1 0 131.8898)">
			<stop  offset="7.435900e-02" style="stop-color:#E710E7"/>
			<stop  offset="1" style="stop-color:#09B1F2"/>
		</linearGradient>
		<path class="st14" d="M15.1,52c0,1.3,1.1,2.3,2.4,2.3c1.3,0,2.2-1.1,2.2-2.4V36.3c0-1.3-1-2.3-2.3-2.3l0,0c-1.3,0-2.3,1-2.3,2.3
			L15.1,52L15.1,52z"/>
		
			<linearGradient id="SVGID_13_" gradientUnits="userSpaceOnUse" x1="17.3811" y1="119.237" x2="17.3811" y2="85.0212" gradientTransform="matrix(1 0 0 -1 0 131.8898)">
			<stop  offset="7.435900e-02" style="stop-color:#E710E7"/>
			<stop  offset="1" style="stop-color:#09B1F2"/>
		</linearGradient>
		<path class="st15" d="M17.3,11.2c-1.3,0-2.2,1.2-2.2,2.4v15.5c0,1.3,1,2.3,2.3,2.3l0,0c1.3,0,2.3-1,2.3-2.3V13.6
			C19.7,12.3,18.6,11.2,17.3,11.2z"/>
		
			<linearGradient id="SVGID_14_" gradientUnits="userSpaceOnUse" x1="31.6077" y1="119.237" x2="31.6077" y2="85.0213" gradientTransform="matrix(1 0 0 -1 0 131.8898)">
			<stop  offset="7.435900e-02" style="stop-color:#E710E7"/>
			<stop  offset="1" style="stop-color:#09B1F2"/>
		</linearGradient>
		<path class="st16" d="M29.3,52c0,1.3,1.1,2.3,2.4,2.3c1.3,0,2.2-1.1,2.2-2.4V36.3c0-1.3-1-2.3-2.3-2.3l0,0c-1.3,0-2.3,1-2.3,2.3
			L29.3,52L29.3,52z"/>
		
			<linearGradient id="SVGID_15_" gradientUnits="userSpaceOnUse" x1="31.7048" y1="119.237" x2="31.7048" y2="85.0212" gradientTransform="matrix(1 0 0 -1 0 131.8898)">
			<stop  offset="7.435900e-02" style="stop-color:#E710E7"/>
			<stop  offset="1" style="stop-color:#09B1F2"/>
		</linearGradient>
		<path class="st17" d="M31.6,11.2c-1.3,0-2.2,1.2-2.2,2.4v15.5c0,1.3,1,2.3,2.3,2.3l0,0c1.3,0,2.3-1,2.3-2.3V13.6
			C34,12.3,32.9,11.2,31.6,11.2z"/>
		
			<linearGradient id="SVGID_16_" gradientUnits="userSpaceOnUse" x1="24.4701" y1="119.237" x2="24.4701" y2="85.0212" gradientTransform="matrix(1 0 0 -1 0 131.8898)">
			<stop  offset="7.435900e-02" style="stop-color:#E710E7"/>
			<stop  offset="1" style="stop-color:#09B1F2"/>
		</linearGradient>
		<path class="st18" d="M22.2,55.4c0,1.3,1.1,2.3,2.4,2.3c1.3,0,2.2-1.1,2.2-2.4v-19c0-1.3-1-2.3-2.3-2.3l0,0c-1.3,0-2.3,1-2.3,2.3
			L22.2,55.4L22.2,55.4z"/>
		
			<linearGradient id="SVGID_17_" gradientUnits="userSpaceOnUse" x1="24.5187" y1="119.237" x2="24.5187" y2="85.0212" gradientTransform="matrix(1 0 0 -1 0 131.8898)">
			<stop  offset="7.435900e-02" style="stop-color:#E710E7"/>
			<stop  offset="1" style="stop-color:#09B1F2"/>
		</linearGradient>
		<path class="st19" d="M24.4,7.8c-1.3,0-2.2,1.2-2.2,2.4v19c0,1.3,1,2.3,2.3,2.3l0,0c1.3,0,2.3-1,2.3-2.3V10.1
			C26.8,8.8,25.7,7.7,24.4,7.8z"/>
	</g>
	<g>
		<path class="st20" d="M64.8,40c-1.3,0-1.9-0.7-1.9-1.9V27.6c0-1.3,0.7-1.9,1.9-1.9h6.9c1,0,1.5,0.5,1.5,1.4c0,1-0.5,1.5-1.5,1.5
			h-5.3v2.7h4.8c1,0,1.5,0.5,1.5,1.4s-0.5,1.4-1.5,1.4h-4.8V37h5.3c1,0,1.5,0.5,1.5,1.4c0,1-0.5,1.4-1.5,1.4h-6.9V40z"/>
		<path class="st20" d="M81.6,40.1c-0.5,0-0.9-0.1-1.3-0.3c-0.3-0.2-0.6-0.6-0.8-1L74.6,28c-0.2-0.5-0.3-0.9-0.2-1.3
			c0.1-0.4,0.3-0.7,0.6-0.9c0.3-0.2,0.7-0.3,1.1-0.3c0.6,0,1,0.1,1.2,0.4c0.3,0.3,0.5,0.6,0.7,1.1l3.6,8.3l3.6-8.3
			c0.2-0.5,0.5-0.8,0.7-1.1c0.3-0.3,0.7-0.4,1.2-0.4c0.4,0,0.8,0.1,1.1,0.3s0.5,0.5,0.6,0.9c0.1,0.4,0,0.8-0.2,1.3l-4.9,10.9
			c-0.2,0.5-0.5,0.8-0.8,1C82.5,40,82.1,40.1,81.6,40.1z"/>
		<path class="st20" d="M92.4,40c-1.3,0-1.9-0.7-1.9-1.9V27.6c0-1.3,0.7-1.9,1.9-1.9h6.9c1,0,1.5,0.5,1.5,1.4c0,1-0.5,1.5-1.5,1.5
			H94v2.7h4.8c1,0,1.5,0.5,1.5,1.4s-0.5,1.4-1.5,1.4H94V37h5.3c1,0,1.5,0.5,1.5,1.4c0,1-0.5,1.4-1.5,1.4h-6.9V40z"/>
		<path class="st20" d="M104.6,40.1c-1.2,0-1.7-0.6-1.7-1.8V27.3c0-0.6,0.2-1.1,0.5-1.4c0.3-0.3,0.7-0.5,1.2-0.5
			c0.5,0,0.8,0.1,1,0.3c0.3,0.2,0.5,0.5,0.8,0.8l5.9,7.4v-6.7c0-1.2,0.6-1.7,1.7-1.7c0.6,0,1,0.2,1.3,0.5c0.3,0.3,0.5,0.7,0.5,1.3
			v11.3c0,0.5-0.2,0.9-0.4,1.2c-0.3,0.3-0.7,0.5-1.1,0.5s-0.8-0.1-1.1-0.3c-0.3-0.2-0.6-0.5-0.9-0.8l-5.9-7.4v6.6
			C106.4,39.6,105.8,40.1,104.6,40.1z"/>
		<path class="st20" d="M123.5,40.1c-0.6,0-1.1-0.2-1.4-0.5c-0.3-0.3-0.5-0.8-0.5-1.4v-9.5h-3.2c-1,0-1.5-0.5-1.5-1.5
			s0.5-1.5,1.5-1.5h10.1c1,0,1.5,0.5,1.5,1.5s-0.5,1.5-1.5,1.5h-3.2v9.6c0,0.6-0.2,1.1-0.5,1.4C124.6,40,124.1,40.1,123.5,40.1z"/>
		<path class="st20" d="M132.7,40c-0.7,0-1.1-0.2-1.4-0.5c-0.3-0.4-0.5-0.8-0.4-1.3c0.1-0.6,0.3-1.1,0.7-1.6l6.1-7.8h-5.3
			c-1.1,0-1.6-0.5-1.6-1.5c0-1,0.6-1.5,1.6-1.5h7.9c0.7,0,1.1,0.2,1.4,0.5c0.3,0.4,0.5,0.8,0.4,1.3c-0.1,0.6-0.3,1.1-0.8,1.6
			l-6.2,7.8h5.7c1.1,0,1.6,0.5,1.6,1.5s-0.6,1.5-1.6,1.5C140.8,40,132.7,40,132.7,40z"/>
		<path class="st20" d="M150.6,40.2c-1.5,0-2.7-0.3-3.8-0.9c-1.1-0.6-1.9-1.5-2.5-2.6s-0.9-2.4-0.9-3.9c0-1.5,0.3-2.8,0.9-3.9
			c0.6-1.1,1.5-2,2.5-2.6c1.1-0.6,2.4-0.9,3.8-0.9c1.5,0,2.7,0.3,3.8,0.9s1.9,1.5,2.5,2.6c0.6,1.1,0.9,2.4,0.9,3.9
			c0,1.5-0.3,2.8-0.9,3.9c-0.6,1.1-1.5,2-2.5,2.6C153.4,39.9,152.1,40.2,150.6,40.2z M150.6,37c1.1,0,1.9-0.4,2.5-1.1
			c0.6-0.8,0.9-1.8,0.9-3.1c0-1.3-0.3-2.4-0.9-3.1c-0.6-0.8-1.4-1.1-2.5-1.1s-1.9,0.4-2.5,1.1c-0.6,0.8-0.9,1.8-0.9,3.1
			c0,1.3,0.3,2.4,0.9,3.1C148.8,36.7,149.6,37,150.6,37z"/>
		<path class="st20" d="M162,40.1c-0.6,0-1.1-0.2-1.4-0.5c-0.3-0.3-0.5-0.8-0.5-1.4V27.5c0-0.6,0.2-1.1,0.5-1.4
			c0.3-0.3,0.8-0.5,1.4-0.5h5c1.6,0,2.9,0.4,3.8,1.2c0.9,0.8,1.3,1.9,1.3,3.3c0,1.1-0.3,2-0.8,2.7s-1.3,1.2-2.3,1.5
			c0.8,0.2,1.4,0.7,1.8,1.6l1,1.8c0.2,0.4,0.3,0.8,0.3,1.2c0,0.4-0.2,0.7-0.5,0.9c-0.3,0.3-0.7,0.4-1.2,0.4c-0.5,0-1-0.1-1.3-0.3
			c-0.4-0.2-0.6-0.6-0.9-1l-1.8-3.4c-0.2-0.3-0.4-0.5-0.6-0.6c-0.3-0.1-0.6-0.2-0.9-0.2h-1.1v3.7c0,0.6-0.2,1.1-0.5,1.4
			C163.1,40,162.6,40.1,162,40.1z M163.9,32h2.5c1.5,0,2.2-0.6,2.2-1.7c0-1.2-0.8-1.7-2.2-1.7h-2.5V32z"/>
	</g>
</g>
<g id="DESIGNED_BY_FREEPIK">
</g>
</svg>
