<?xml version="1.0" encoding="utf-8"?>
<!-- Generator: Adobe Illustrator 22.1.0, SVG Export Plug-In . SVG Version: 6.00 Build 0)  -->
<svg version="1.1" id="Capa_1" focusable="false" xmlns="http://www.w3.org/2000/svg" xmlns:xlink="http://www.w3.org/1999/xlink"
	 x="0px" y="0px" viewBox="0 0 448 512" style="enable-background:new 0 0 448 512;" xml:space="preserve">
<style type="text/css">
	.st0{fill:#FF2E93;}
</style>
<path class="st0" d="M72,431.1V73.7C72,66.2,64.8,60,56,60H16C7.2,60,0,66.2,0,73.7l0,357.4c0,7.6,7.2,13.7,16,13.7h40
	C64.8,444.9,72,438.7,72,431.1z"/>
<path class="st0" d="M16,132h416c8.8,0,16-7.2,16-16V76c0-8.8-7.2-16-16-16H16C7.2,60,0,67.2,0,76v40C0,124.8,7.2,132,16,132z
	 M16,292h416c8.8,0,16-7.2,16-16v-40c0-8.8-7.2-16-16-16H16c-8.8,0-16,7.2-16,16v40C0,284.8,7.2,292,16,292z M16,452h416
	c8.8,0,16-7.2,16-16v-40c0-8.8-7.2-16-16-16H16c-8.8,0-16,7.2-16,16v40C0,444.8,7.2,452,16,452z"/>
</svg>
