<?xml version="1.0" encoding="utf-8"?>
<!-- Generator: Adobe Illustrator 22.1.0, SVG Export Plug-In . SVG Version: 6.00 Build 0)  -->
<svg version="1.1" id="bc55cf1b-bb56-4ff7-a17c-bec1084d4208"
	 xmlns="http://www.w3.org/2000/svg" xmlns:xlink="http://www.w3.org/1999/xlink" x="0px" y="0px" viewBox="0 0 420 265.9"
	 style="enable-background:new 0 0 420 265.9;" xml:space="preserve">
<style type="text/css">
	.st0{fill:#F2F2F2;}
	.st1{fill:#FF2E93;}
	.st2{fill:#3F3D56;}
</style>
<path class="st0" d="M420,221.7v0.9c0,17.4-14.1,31.5-31.5,31.5H32.7c-17.4,0-31.5-14.1-31.5-31.5v-0.9H420z"/>
<path class="st1" d="M75.6,71.7C49.9,78,26.8,58.3,22.8,39.9l1.8-0.3C46.3,34.8,70.4,50.3,75.6,71.7z"/>
<path class="st2" d="M65.1,73.5c-8.3-0.1-16.5-2.4-23.6-6.9c-10.3-6.4-18.1-16.7-20.4-26.9l-0.2-1l2.8-0.5
	c22-4.9,46.9,10.8,52.2,32.8l0.2,1l-1,0.2C71.9,73.1,68.5,73.5,65.1,73.5z M23.3,40.4C25.7,49.7,33,59,42.6,64.9
	c9.2,5.9,20.4,7.9,31.1,5.7c-5.6-20.5-28.9-35-49.6-30.4L23.3,40.4z"/>
<path class="st2" d="M229.6,166.6c-6.5,0-11.9-2.9-15-8.3c-3.6-6.3-3.6-14,0-20.4c3.2-5.4,8.6-8.4,15.3-8.3h63.4
	c6.7-0.1,12.1,2.8,15.3,8.3c3.6,6.3,3.6,14,0,20.4c-3.2,5.4-8.6,8.3-15.3,8.3h-63.4C229.8,166.6,229.7,166.6,229.6,166.6z
	 M229.6,131.7c-5.8,0-10.5,2.6-13.3,7.3c-3.2,5.7-3.2,12.6,0,18.3c2.8,4.8,7.6,7.4,13.6,7.3h63.5c6,0.1,10.8-2.5,13.6-7.3
	c3.2-5.7,3.2-12.6,0-18.3c-2.8-4.8-7.6-7.4-13.6-7.3h-63.5C229.8,131.7,229.7,131.7,229.6,131.7L229.6,131.7z"/>
<g>
	<path class="st1" d="M240.8,140.3v16.3c0,2.2-1.8,4.1-4.1,4.1c-2.2,0-4.1-1.8-4.1-4.1v-16.3c0-2.2,1.8-4.1,4.1-4.1
		C239,136.2,240.8,138,240.8,140.3z"/>
	<path class="st1" d="M265.7,140.3v16.3c0,2.2-1.8,4.1-4.1,4.1s-4.1-1.8-4.1-4.1v-16.3c0-2.2,1.8-4.1,4.1-4.1S265.7,138,265.7,140.3
		z"/>
	<path class="st1" d="M290.6,140.3v16.3c0,2.2-1.8,4.1-4.1,4.1s-4.1-1.8-4.1-4.1v-16.3c0-2.2,1.8-4.1,4.1-4.1S290.6,138,290.6,140.3
		z"/>
</g>
<rect x="1.2" y="87.1" class="st2" width="418.8" height="2"/>
<path class="st2" d="M387,254.7H33c-18.2,0-33-14.8-33-33v-172c0-18.2,14.8-33,33-33h354c18.2,0,33,14.8,33,33v172
	C420,239.9,405.2,254.7,387,254.7z M33,18.7c-17.1,0-31,13.9-31,31v172c0,17.1,13.9,31,31,31h354c17.1,0,31-13.9,31-31v-172
	c0-17.1-13.9-31-31-31H33z"/>
<g>
	<path class="st1" d="M249.8,118.6c-2,2.6-5.1,4.3-8.6,4.4c-0.1,0-0.2,0-0.2,0c-6.2,0-11.2-5-11.2-11.2c0-6.2,5-11.2,11.2-11.2
		c0.1,0,0.2,0,0.2,0c3.5,0.1,6.6,1.8,8.6,4.4c-0.9,1.1-2.3,1.8-3.8,1.8c-0.7,0-1.3-0.2-1.9-0.4c-0.2-0.1-0.4-0.2-0.7-0.3
		c-0.7-0.3-1.6-0.5-2.4-0.5c-3.4,0-6.2,2.8-6.2,6.2c0,3.4,2.8,6.2,6.2,6.2c0.9,0,1.7-0.2,2.4-0.5c0.2-0.1,0.5-0.2,0.7-0.3
		c0.6-0.2,1.2-0.4,1.9-0.4C247.5,116.8,248.9,117.5,249.8,118.6z"/>
	<path class="st1" d="M249.2,100.7h2.5c1.7,0,3.3,0.8,4.1,2.1l4.5,9.1l4.5-9.1c0.7-1.4,2.4-2.1,4.1-2.1h2.5L260.3,123L249.2,100.7z"
		/>
	<path class="st1" d="M273.4,100.7h2.5c1.7,0,3.3,0.8,4.1,2.1l4.5,9.1l4.5-9.1c0.7-1.4,2.4-2.1,4.1-2.1h2.5L284.6,123L273.4,100.7z"
		/>
</g>
</svg>
