<?xml version="1.0" encoding="utf-8"?>
<!-- Generator: Adobe Illustrator 22.1.0, SVG Export Plug-In . SVG Version: 6.00 Build 0)  -->
<svg version="1.1" id="a0c20882-2d18-455a-ade1-f7c359a0c63a"
	 xmlns="http://www.w3.org/2000/svg" xmlns:xlink="http://www.w3.org/1999/xlink" x="0px" y="0px" viewBox="0 0 1099.2 725.8"
	 style="enable-background:new 0 0 1099.2 725.8;" xml:space="preserve">
<style type="text/css">
	.st0{opacity:0.1;fill:#00E6B3;enable-background:new    ;}
	.st1{fill:#00E6B3;}
	.st2{opacity:0.1;enable-background:new    ;}
	.st3{opacity:0.1;}
</style>
<title>compose music</title>
<circle class="st0" cx="1062.9" cy="274.6" r="36.3"/>
<circle class="st0" cx="455.3" cy="27.8" r="21.6"/>
<circle class="st0" cx="703.4" cy="52.6" r="21.6"/>
<circle class="st0" cx="36.3" cy="326.2" r="36.3"/>
<path class="st0" d="M608.1,119.7c-64.7-2.4-126.4-24.9-185.2-49.4S305.7,18.5,242.6,5.5C202-2.9,155.5-4.1,122.8,19.3
	C91.2,41.9,81,80.7,75.6,116.8c-4.1,27.1-6.5,55.7,4.7,81.1c7.8,17.6,21.7,32.5,31.4,49.4c33.5,58.8,9.8,131.3-26.5,188.7
	c-17,26.9-36.7,52.6-49.9,81.3c-13.1,28.7-19.2,61.5-7.8,90.7c11.4,29,38.5,50.7,67.9,66c59.7,31.1,130,40,198.6,45
	c151.8,11.2,304.5,6.3,456.7,1.5c56.3-1.8,112.9-3.6,168.3-13c30.8-5.2,62.6-13.5,84.9-33.4c28.4-25.3,35.4-68.1,16.4-99.8
	c-31.9-53.2-120-66.4-142.3-123.4c-12.3-31.4,0.3-66.4,18.2-95.5c38.2-62.5,102.3-117.3,105.7-188.7c2.3-49-28.5-98.2-76.1-121.4
	c-49.9-24.3-119.2-21.3-156,19C731.9,105.9,665.3,121.8,608.1,119.7z"/>
<path class="st1" d="M515.4,162.1v335.4c-11.2-3.6-22.9-5.4-34.6-5.3c-49.9,0-90.4,35.3-90.4,85.2s40.5,84.8,90.4,84.8
	s90.6-36.7,90.6-90V339.1h263v158.3c-11.2-3.6-22.9-5.4-34.6-5.3c-49.9,0-90.4,35.3-90.4,85.2s40.5,84.8,90.4,84.8
	s90.6-36.7,90.6-90v-410L515.4,162.1z M834.4,287.1h-263v-69h263V287.1z"/>
<path class="st1" d="M249.4,125.1v225.1c-40.7-23.5-92.8-9.5-116.3,31.2s-9.5,92.8,31.2,116.3c40.7,23.5,92.8,9.5,116.3-31.2
	c7.5-13,11.4-27.7,11.4-42.7V210.4h85.4v-85.3H249.4z"/>
<path class="st1" d="M226.6,652.6c-4.9-2.6-10.2-4.5-15.6-5.5c4-0.5,7.9-1.4,11.7-2.6c10.2-3.2,15.3-7.5,11.5-9.7s-15.2-1.2-25.4,2
	c-3.4,1-6.7,2.4-9.8,4.3c-1.1-2.2-3.9-4.8-8.4-7.3c-9-5-21.2-7.5-27.1-5.6s-3.4,7.4,5.6,12.4c4.4,2.4,9.1,4.1,14,5.2
	c-3.2,0.4-6.5,0.9-9.6,1.7c-11.1,2.7-17.5,6.7-14.3,9c3.2,2.3,14.7,2,25.8-0.6c4-0.9,7.9-2.2,11.6-4.1c0.9,2.3,3.8,5,8.5,7.6
	c9,5,21.2,7.5,27.1,5.6S235.6,657.6,226.6,652.6z"/>
<path class="st1" d="M290.3,579.5c-2.4-1.3-4.9-2.2-7.6-2.7c1.9-0.3,3.8-0.7,5.7-1.3c4.9-1.6,7.4-3.7,5.6-4.7s-7.4-0.6-12.3,1
	c-1.7,0.5-3.3,1.2-4.7,2.1c-0.5-1.1-1.9-2.3-4.1-3.5c-4.4-2.4-10.3-3.6-13.2-2.7s-1.7,3.6,2.7,6c2.1,1.2,4.4,2,6.8,2.5
	c-1.6,0.2-3.1,0.5-4.7,0.8c-5.4,1.3-8.5,3.2-6.9,4.3s7.1,1,12.5-0.3c2-0.4,3.9-1.1,5.6-2c0.4,1.1,1.9,2.4,4.1,3.7
	c4.4,2.4,10.3,3.6,13.2,2.7S294.7,582,290.3,579.5z"/>
<path class="st1" d="M118.9,505.4c-1.5-0.8-3.1-1.4-4.8-1.7c1.2-0.2,2.4-0.4,3.6-0.8c3.1-1,4.6-2.3,3.5-2.9s-4.6-0.4-7.7,0.6
	c-1.1,0.3-2.1,0.7-3,1.3c-0.6-1-1.5-1.7-2.5-2.2c-2.7-1.5-6.4-2.3-8.2-1.7s-1,2.3,1.7,3.8c1.3,0.7,2.8,1.3,4.3,1.6
	c-1,0.1-2,0.3-2.9,0.5c-3.4,0.8-5.3,2-4.4,2.7s4.5,0.6,7.8-0.2c1.2-0.3,2.4-0.7,3.5-1.3c0.6,1,1.5,1.8,2.6,2.3
	c2.8,1.5,6.4,2.3,8.2,1.7S121.7,507,118.9,505.4z"/>
<path class="st2" d="M364.4,125.1v71.3H279v213.4c0,47.1-38.1,85.3-85.2,85.3c-19.2,0-37.9-6.5-52.9-18.4
	c29.2,37,82.8,43.2,119.8,14c20.5-16.2,32.4-40.8,32.4-66.9V210.4h85.4v-85.3H364.4z"/>
<g class="st3">
	<path d="M821.4,333.1h-263v232.9c0,53.3-40.8,90-90.6,90c-11.9,0-23.7-2-34.8-6.1c14.6,8.1,31.1,12.2,47.8,12.1
		c49.9,0,90.6-36.7,90.6-90V339.1h250V333.1z"/>
	<polygon points="558.4,281 571.4,281 571.4,218 821.4,218 821.4,212 558.4,212 	"/>
	<path d="M877.4,162.1v404c0,53.3-40.8,90-90.6,90c-11.9,0-23.7-2-34.8-6.1c14.6,8.1,31.1,12.2,47.8,12.1c49.9,0,90.6-36.7,90.6-90
		v-410L877.4,162.1z"/>
</g>
</svg>
